<?xml version="1.0"?>
<svg xmlns="http://www.w3.org/2000/svg" xmlns:xlink="http://www.w3.org/1999/xlink" viewBox="0 0 315.200000 156.000000" width="157.600000mm" height="78.000000mm" version="1.1">
<rect x="1.000000" y="1.000000" width="314.200000" height="155.000000" rx="0" ry="0" style="stroke:none;fill:#cccccc;"/>
<rect x="0.000000" y="0.000000" width="314.200000" height="155.000000" rx="0" ry="0" style="stroke:none;fill:#ffffff;"/>
<text x="10.000000" y="7.000000" font-family="Arial" font-size="7"></text>
<rect x="33.000000" y="67.000000" width="25.800000" height="24.000000" rx="0" ry="0" style="stroke:none;fill:#cccccc;"/>
<rect x="32.000000" y="66.000000" width="25.800000" height="24.000000" rx="0" ry="0" style="stroke:none;fill:#47945E;"/>
<text x="44.900000" y="80.000000" font-family="Arial" font-size="7" text-anchor="middle" fill="#FFFFFF">audio</text>
<circle cx="34.000000" cy="68.000000" r="1"/>
<line x1="29.000000" y1="77.000000" x2="32.000000" y2="78.000000"  transform="rotate(0.000000,32.000000,78.000000)" style="stroke: black; stroke-width:0.25;"/>
<line x1="29.000000" y1="79.000000" x2="32.000000" y2="78.000000"  transform="rotate(0.000000,32.000000,78.000000)" style="stroke: black; stroke-width:0.25;"/>
<a xlink:href="GainCalculator-0x9a09128.svg">
<rect x="66.800000" y="67.000000" width="77.400000" height="24.000000" rx="0" ry="0" style="stroke:none;fill:#cccccc;"/>
<rect x="65.800000" y="66.000000" width="77.400000" height="24.000000" rx="0" ry="0" style="stroke:none;fill:#003366;"/>
</a>
<a xlink:href="GainCalculator-0x9a09128.svg">
<text x="104.500000" y="80.000000" font-family="Arial" font-size="7" text-anchor="middle" fill="#FFFFFF">GainCalculator(x1)</text>
</a>
<circle cx="67.800000" cy="68.000000" r="1"/>
<a xlink:href="db2linear-0x9a0d410.svg">
<rect x="182.850000" y="25.000000" width="38.700000" height="24.000000" rx="0" ry="0" style="stroke:none;fill:#cccccc;"/>
<rect x="181.850000" y="24.000000" width="38.700000" height="24.000000" rx="0" ry="0" style="stroke:none;fill:#003366;"/>
</a>
<a xlink:href="db2linear-0x9a0d410.svg">
<text x="201.200000" y="38.000000" font-family="Arial" font-size="7" text-anchor="middle" fill="#FFFFFF">db2linear</text>
</a>
<circle cx="183.850000" cy="26.000000" r="1"/>
<line x1="178.850000" y1="35.000000" x2="181.850000" y2="36.000000"  transform="rotate(0.000000,181.850000,36.000000)" style="stroke: black; stroke-width:0.25;"/>
<line x1="178.850000" y1="37.000000" x2="181.850000" y2="36.000000"  transform="rotate(0.000000,181.850000,36.000000)" style="stroke: black; stroke-width:0.25;"/>
<rect x="169.300000" y="57.000000" width="25.800000" height="24.000000" rx="0" ry="0" style="stroke:none;fill:#cccccc;"/>
<rect x="168.300000" y="56.000000" width="25.800000" height="24.000000" rx="0" ry="0" style="stroke:none;fill:#47945E;"/>
<text x="181.200000" y="70.000000" font-family="Arial" font-size="7" text-anchor="middle" fill="#FFFFFF">audio</text>
<circle cx="170.300000" cy="58.000000" r="1"/>
<rect x="170.200000" y="99.000000" width="24.000000" height="24.000000" rx="0" ry="0" style="stroke:none;fill:#cccccc;"/>
<rect x="169.200000" y="98.000000" width="24.000000" height="24.000000" rx="0" ry="0" style="stroke:none;fill:#f44800;"/>
<text x="181.200000" y="112.000000" font-family="Arial" font-size="7" text-anchor="middle" fill="#FFFFFF">4</text>
<circle cx="171.200000" cy="100.000000" r="1"/>
<line x1="160.200000" y1="89.000000" x2="160.200000" y2="131.000000"  style="stroke: black; stroke-linecap:round; stroke-width:0.25; stroke-dasharray:3,3;"/>
<line x1="160.200000" y1="131.000000" x2="202.200000" y2="131.000000"  style="stroke: black; stroke-linecap:round; stroke-width:0.25; stroke-dasharray:3,3;"/>
<line x1="202.200000" y1="131.000000" x2="202.200000" y2="89.000000"  style="stroke: black; stroke-linecap:round; stroke-width:0.25; stroke-dasharray:3,3;"/>
<line x1="160.200000" y1="89.000000" x2="165.200000" y2="89.000000"  style="stroke: black; stroke-linecap:round; stroke-width:0.25; stroke-dasharray:3,3;"/>
<line x1="202.200000" y1="89.000000" x2="202.200000" y2="89.000000"  style="stroke: black; stroke-linecap:round; stroke-width:0.25; stroke-dasharray:3,3;"/>
<text x="165.200000" y="91.000000" font-family="Arial" font-size="7">LookAheadTime</text>
<rect x="220.200000" y="83.000000" width="24.000000" height="24.000000" rx="0" ry="0" style="stroke:none;fill:#cccccc;"/>
<rect x="219.200000" y="82.000000" width="24.000000" height="24.000000" rx="0" ry="0" style="stroke:none;fill:#4B71A1;"/>
<text x="231.200000" y="96.000000" font-family="Arial" font-size="7" text-anchor="middle" fill="#FFFFFF">@</text>
<circle cx="221.200000" cy="84.000000" r="1"/>
<line x1="216.200000" y1="89.000000" x2="219.200000" y2="90.000000"  transform="rotate(0.000000,219.200000,90.000000)" style="stroke: black; stroke-width:0.25;"/>
<line x1="216.200000" y1="91.000000" x2="219.200000" y2="90.000000"  transform="rotate(0.000000,219.200000,90.000000)" style="stroke: black; stroke-width:0.25;"/>
<line x1="216.200000" y1="97.000000" x2="219.200000" y2="98.000000"  transform="rotate(0.000000,219.200000,98.000000)" style="stroke: black; stroke-width:0.25;"/>
<line x1="216.200000" y1="99.000000" x2="219.200000" y2="98.000000"  transform="rotate(0.000000,219.200000,98.000000)" style="stroke: black; stroke-width:0.25;"/>
<rect x="260.200000" y="67.000000" width="24.000000" height="24.000000" rx="0" ry="0" style="stroke:none;fill:#cccccc;"/>
<rect x="259.200000" y="66.000000" width="24.000000" height="24.000000" rx="0" ry="0" style="stroke:none;fill:#4B71A1;"/>
<text x="271.200000" y="80.000000" font-family="Arial" font-size="7" text-anchor="middle" fill="#FFFFFF">*</text>
<circle cx="261.200000" cy="68.000000" r="1"/>
<line x1="256.200000" y1="73.000000" x2="259.200000" y2="74.000000"  transform="rotate(0.000000,259.200000,74.000000)" style="stroke: black; stroke-width:0.25;"/>
<line x1="256.200000" y1="75.000000" x2="259.200000" y2="74.000000"  transform="rotate(0.000000,259.200000,74.000000)" style="stroke: black; stroke-width:0.25;"/>
<line x1="256.200000" y1="81.000000" x2="259.200000" y2="82.000000"  transform="rotate(0.000000,259.200000,82.000000)" style="stroke: black; stroke-width:0.25;"/>
<line x1="256.200000" y1="83.000000" x2="259.200000" y2="82.000000"  transform="rotate(0.000000,259.200000,82.000000)" style="stroke: black; stroke-width:0.25;"/>
<line x1="15.000000" y1="15.000000" x2="15.000000" y2="141.000000"  style="stroke: black; stroke-linecap:round; stroke-width:0.25; stroke-dasharray:3,3;"/>
<line x1="15.000000" y1="141.000000" x2="300.200000" y2="141.000000"  style="stroke: black; stroke-linecap:round; stroke-width:0.25; stroke-dasharray:3,3;"/>
<line x1="300.200000" y1="141.000000" x2="300.200000" y2="15.000000"  style="stroke: black; stroke-linecap:round; stroke-width:0.25; stroke-dasharray:3,3;"/>
<line x1="15.000000" y1="15.000000" x2="20.000000" y2="15.000000"  style="stroke: black; stroke-linecap:round; stroke-width:0.25; stroke-dasharray:3,3;"/>
<line x1="49.025000" y1="15.000000" x2="300.200000" y2="15.000000"  style="stroke: black; stroke-linecap:round; stroke-width:0.25; stroke-dasharray:3,3;"/>
<text x="20.000000" y="17.000000" font-family="Arial" font-size="7">process</text>
<line x1="302.200000" y1="77.000000" x2="305.200000" y2="78.000000"  transform="rotate(0.000000,305.200000,78.000000)" style="stroke: black; stroke-width:0.25;"/>
<line x1="302.200000" y1="79.000000" x2="305.200000" y2="78.000000"  transform="rotate(0.000000,305.200000,78.000000)" style="stroke: black; stroke-width:0.25;"/>
<line x1="10.000000" y1="78.000000" x2="20.000000" y2="78.000000"  style="stroke:black; stroke-linecap:round; stroke-width:0.25;"/>
<line x1="20.000000" y1="78.000000" x2="24.000000" y2="78.000000"  style="stroke:black; stroke-linecap:round; stroke-width:0.25;"/>
<line x1="24.000000" y1="78.000000" x2="28.000000" y2="78.000000"  style="stroke:black; stroke-linecap:round; stroke-width:0.25;"/>
<line x1="28.000000" y1="78.000000" x2="28.000000" y2="78.000000"  style="stroke:black; stroke-linecap:round; stroke-width:0.25;"/>
<line x1="28.000000" y1="78.000000" x2="32.000000" y2="78.000000"  style="stroke:black; stroke-linecap:round; stroke-width:0.25;"/>
<line x1="143.200000" y1="78.000000" x2="147.200000" y2="78.000000"  style="stroke:black; stroke-linecap:round; stroke-width:0.25;"/>
<line x1="147.200000" y1="36.000000" x2="155.200000" y2="36.000000"  style="stroke:black; stroke-linecap:round; stroke-width:0.25;"/>
<line x1="147.200000" y1="78.000000" x2="147.200000" y2="36.000000"  style="stroke:black; stroke-linecap:round; stroke-width:0.25;"/>
<line x1="147.200000" y1="78.000000" x2="147.200000" y2="78.000000"  style="stroke:black; stroke-linecap:round; stroke-width:0.25;"/>
<line x1="155.200000" y1="36.000000" x2="177.850000" y2="36.000000"  style="stroke:black; stroke-linecap:round; stroke-width:0.25;"/>
<line x1="177.850000" y1="36.000000" x2="181.850000" y2="36.000000"  style="stroke:black; stroke-linecap:round; stroke-width:0.25;"/>
<line x1="193.200000" y1="110.000000" x2="197.200000" y2="110.000000"  style="stroke:black; stroke-linecap:round; stroke-width:0.25;"/>
<line x1="194.100000" y1="68.000000" x2="198.100000" y2="68.000000"  style="stroke:black; stroke-linecap:round; stroke-width:0.25;"/>
<line x1="197.200000" y1="110.000000" x2="207.200000" y2="110.000000"  style="stroke:black; stroke-linecap:round; stroke-width:0.25;"/>
<line x1="198.100000" y1="68.000000" x2="207.200000" y2="68.000000"  style="stroke:black; stroke-linecap:round; stroke-width:0.25;"/>
<line x1="207.200000" y1="68.000000" x2="215.200000" y2="68.000000"  style="stroke:black; stroke-linecap:round; stroke-width:0.25;"/>
<line x1="207.200000" y1="98.000000" x2="215.200000" y2="98.000000"  style="stroke:black; stroke-linecap:round; stroke-width:0.25;"/>
<line x1="207.200000" y1="110.000000" x2="207.200000" y2="98.000000"  style="stroke:black; stroke-linecap:round; stroke-width:0.25;"/>
<line x1="207.200000" y1="110.000000" x2="207.200000" y2="110.000000"  style="stroke:black; stroke-linecap:round; stroke-width:0.25;"/>
<line x1="215.200000" y1="68.000000" x2="215.200000" y2="90.000000"  style="stroke:black; stroke-linecap:round; stroke-width:0.25;"/>
<line x1="215.200000" y1="90.000000" x2="215.200000" y2="90.000000"  style="stroke:black; stroke-linecap:round; stroke-width:0.25;"/>
<line x1="215.200000" y1="90.000000" x2="219.200000" y2="90.000000"  style="stroke:black; stroke-linecap:round; stroke-width:0.25;"/>
<line x1="215.200000" y1="98.000000" x2="219.200000" y2="98.000000"  style="stroke:black; stroke-linecap:round; stroke-width:0.25;"/>
<line x1="220.550000" y1="36.000000" x2="224.550000" y2="36.000000"  style="stroke:black; stroke-linecap:round; stroke-width:0.25;"/>
<line x1="224.550000" y1="36.000000" x2="247.200000" y2="36.000000"  style="stroke:black; stroke-linecap:round; stroke-width:0.25;"/>
<line x1="243.200000" y1="94.000000" x2="247.200000" y2="94.000000"  style="stroke:black; stroke-linecap:round; stroke-width:0.25;"/>
<line x1="247.200000" y1="36.000000" x2="255.200000" y2="36.000000"  style="stroke:black; stroke-linecap:round; stroke-width:0.25;"/>
<line x1="247.200000" y1="82.000000" x2="255.200000" y2="82.000000"  style="stroke:black; stroke-linecap:round; stroke-width:0.25;"/>
<line x1="247.200000" y1="94.000000" x2="247.200000" y2="82.000000"  style="stroke:black; stroke-linecap:round; stroke-width:0.25;"/>
<line x1="247.200000" y1="94.000000" x2="247.200000" y2="94.000000"  style="stroke:black; stroke-linecap:round; stroke-width:0.25;"/>
<line x1="255.200000" y1="36.000000" x2="255.200000" y2="74.000000"  style="stroke:black; stroke-linecap:round; stroke-width:0.25;"/>
<line x1="255.200000" y1="74.000000" x2="255.200000" y2="74.000000"  style="stroke:black; stroke-linecap:round; stroke-width:0.25;"/>
<line x1="255.200000" y1="74.000000" x2="259.200000" y2="74.000000"  style="stroke:black; stroke-linecap:round; stroke-width:0.25;"/>
<line x1="255.200000" y1="82.000000" x2="259.200000" y2="82.000000"  style="stroke:black; stroke-linecap:round; stroke-width:0.25;"/>
<line x1="283.200000" y1="78.000000" x2="287.200000" y2="78.000000"  style="stroke:black; stroke-linecap:round; stroke-width:0.25;"/>
<line x1="287.200000" y1="78.000000" x2="287.200000" y2="78.000000"  style="stroke:black; stroke-linecap:round; stroke-width:0.25;"/>
<line x1="287.200000" y1="78.000000" x2="291.200000" y2="78.000000"  style="stroke:black; stroke-linecap:round; stroke-width:0.25;"/>
<line x1="291.200000" y1="78.000000" x2="295.200000" y2="78.000000"  style="stroke:black; stroke-linecap:round; stroke-width:0.25;"/>
<line x1="295.200000" y1="78.000000" x2="305.200000" y2="78.000000"  style="stroke:black; stroke-linecap:round; stroke-width:0.25;"/>
</svg>
