<?xml version="1.0"?>
<svg xmlns="http://www.w3.org/2000/svg" xmlns:xlink="http://www.w3.org/1999/xlink" viewBox="0 0 522.400000 288.000000" width="261.200000mm" height="144.000000mm" version="1.1">
<a xlink:href="hold-0xa870200.svg">
<rect x="1.000000" y="1.000000" width="521.400000" height="287.000000" rx="0" ry="0" style="stroke:none;fill:#cccccc;"/>
<rect x="0.000000" y="0.000000" width="521.400000" height="287.000000" rx="0" ry="0" style="stroke:none;fill:#ffffff;"/>
</a>
<text x="10.000000" y="7.000000" font-family="Arial" font-size="7"></text>
<rect x="226.200000" y="25.000000" width="24.000000" height="24.000000" rx="0" ry="0" style="stroke:none;fill:#cccccc;"/>
<rect x="225.200000" y="24.000000" width="24.000000" height="24.000000" rx="0" ry="0" style="stroke:none;fill:#f44800;"/>
<text x="237.200000" y="38.000000" font-family="Arial" font-size="7" text-anchor="middle" fill="#FFFFFF">0</text>
<circle cx="227.200000" cy="26.000000" r="1"/>
<a xlink:href="currentLevel-0xa86ed68.svg">
<rect x="139.500000" y="57.000000" width="77.400000" height="24.000000" rx="0" ry="0" style="stroke:none;fill:#cccccc;"/>
<rect x="138.500000" y="56.000000" width="77.400000" height="24.000000" rx="0" ry="0" style="stroke:none;fill:#003366;"/>
</a>
<a xlink:href="currentLevel-0xa86ed68.svg">
<text x="177.200000" y="70.000000" font-family="Arial" font-size="7" text-anchor="middle" fill="#FFFFFF">currentLevel(x1)</text>
</a>
<circle cx="140.500000" cy="58.000000" r="1"/>
<rect x="55.000000" y="119.000000" width="206.400000" height="24.000000" rx="0" ry="0" style="stroke:none;fill:#cccccc;"/>
<rect x="54.000000" y="118.000000" width="206.400000" height="24.000000" rx="0" ry="0" style="stroke:none;fill:#477881;"/>
<text x="157.200000" y="132.000000" font-family="Arial" font-size="7" text-anchor="middle" fill="#FFFFFF">hslider(threshold, -0.5f, -6e+01f, 0.0f, 0.1f)</text>
<circle cx="56.000000" cy="120.000000" r="1"/>
<line x1="45.000000" y1="109.000000" x2="45.000000" y2="151.000000"  style="stroke: black; stroke-linecap:round; stroke-width:0.25; stroke-dasharray:3,3;"/>
<line x1="45.000000" y1="151.000000" x2="269.400000" y2="151.000000"  style="stroke: black; stroke-linecap:round; stroke-width:0.25; stroke-dasharray:3,3;"/>
<line x1="269.400000" y1="151.000000" x2="269.400000" y2="109.000000"  style="stroke: black; stroke-linecap:round; stroke-width:0.25; stroke-dasharray:3,3;"/>
<line x1="45.000000" y1="109.000000" x2="50.000000" y2="109.000000"  style="stroke: black; stroke-linecap:round; stroke-width:0.25; stroke-dasharray:3,3;"/>
<line x1="140.300000" y1="109.000000" x2="269.400000" y2="109.000000"  style="stroke: black; stroke-linecap:round; stroke-width:0.25; stroke-dasharray:3,3;"/>
<text x="50.000000" y="111.000000" font-family="Arial" font-size="7">vgroup(distortion control)</text>
<line x1="35.000000" y1="99.000000" x2="35.000000" y2="161.000000"  style="stroke: black; stroke-linecap:round; stroke-width:0.25; stroke-dasharray:3,3;"/>
<line x1="35.000000" y1="161.000000" x2="279.400000" y2="161.000000"  style="stroke: black; stroke-linecap:round; stroke-width:0.25; stroke-dasharray:3,3;"/>
<line x1="279.400000" y1="161.000000" x2="279.400000" y2="99.000000"  style="stroke: black; stroke-linecap:round; stroke-width:0.25; stroke-dasharray:3,3;"/>
<line x1="35.000000" y1="99.000000" x2="40.000000" y2="99.000000"  style="stroke: black; stroke-linecap:round; stroke-width:0.25; stroke-dasharray:3,3;"/>
<line x1="72.250000" y1="99.000000" x2="279.400000" y2="99.000000"  style="stroke: black; stroke-linecap:round; stroke-width:0.25; stroke-dasharray:3,3;"/>
<text x="40.000000" y="101.000000" font-family="Arial" font-size="7">hgroup()</text>
<line x1="25.000000" y1="89.000000" x2="25.000000" y2="171.000000"  style="stroke: black; stroke-linecap:round; stroke-width:0.25; stroke-dasharray:3,3;"/>
<line x1="25.000000" y1="171.000000" x2="289.400000" y2="171.000000"  style="stroke: black; stroke-linecap:round; stroke-width:0.25; stroke-dasharray:3,3;"/>
<line x1="289.400000" y1="171.000000" x2="289.400000" y2="89.000000"  style="stroke: black; stroke-linecap:round; stroke-width:0.25; stroke-dasharray:3,3;"/>
<line x1="25.000000" y1="89.000000" x2="30.000000" y2="89.000000"  style="stroke: black; stroke-linecap:round; stroke-width:0.25; stroke-dasharray:3,3;"/>
<line x1="65.475000" y1="89.000000" x2="289.400000" y2="89.000000"  style="stroke: black; stroke-linecap:round; stroke-width:0.25; stroke-dasharray:3,3;"/>
<text x="30.000000" y="91.000000" font-family="Arial" font-size="7">threshold</text>
<rect x="61.450000" y="211.000000" width="193.500000" height="24.000000" rx="0" ry="0" style="stroke:none;fill:#cccccc;"/>
<rect x="60.450000" y="210.000000" width="193.500000" height="24.000000" rx="0" ry="0" style="stroke:none;fill:#477881;"/>
<text x="157.200000" y="224.000000" font-family="Arial" font-size="7" text-anchor="middle" fill="#FFFFFF">hslider(input gain, 0.0f, 0.0f, 3e+01f, 0.1f)</text>
<circle cx="62.450000" cy="212.000000" r="1"/>
<line x1="51.450000" y1="201.000000" x2="51.450000" y2="243.000000"  style="stroke: black; stroke-linecap:round; stroke-width:0.25; stroke-dasharray:3,3;"/>
<line x1="51.450000" y1="243.000000" x2="262.950000" y2="243.000000"  style="stroke: black; stroke-linecap:round; stroke-width:0.25; stroke-dasharray:3,3;"/>
<line x1="262.950000" y1="243.000000" x2="262.950000" y2="201.000000"  style="stroke: black; stroke-linecap:round; stroke-width:0.25; stroke-dasharray:3,3;"/>
<line x1="51.450000" y1="201.000000" x2="56.450000" y2="201.000000"  style="stroke: black; stroke-linecap:round; stroke-width:0.25; stroke-dasharray:3,3;"/>
<line x1="146.750000" y1="201.000000" x2="262.950000" y2="201.000000"  style="stroke: black; stroke-linecap:round; stroke-width:0.25; stroke-dasharray:3,3;"/>
<text x="56.450000" y="203.000000" font-family="Arial" font-size="7">vgroup(distortion control)</text>
<line x1="41.450000" y1="191.000000" x2="41.450000" y2="253.000000"  style="stroke: black; stroke-linecap:round; stroke-width:0.25; stroke-dasharray:3,3;"/>
<line x1="41.450000" y1="253.000000" x2="272.950000" y2="253.000000"  style="stroke: black; stroke-linecap:round; stroke-width:0.25; stroke-dasharray:3,3;"/>
<line x1="272.950000" y1="253.000000" x2="272.950000" y2="191.000000"  style="stroke: black; stroke-linecap:round; stroke-width:0.25; stroke-dasharray:3,3;"/>
<line x1="41.450000" y1="191.000000" x2="46.450000" y2="191.000000"  style="stroke: black; stroke-linecap:round; stroke-width:0.25; stroke-dasharray:3,3;"/>
<line x1="78.700000" y1="191.000000" x2="272.950000" y2="191.000000"  style="stroke: black; stroke-linecap:round; stroke-width:0.25; stroke-dasharray:3,3;"/>
<text x="46.450000" y="193.000000" font-family="Arial" font-size="7">hgroup()</text>
<line x1="31.450000" y1="181.000000" x2="31.450000" y2="263.000000"  style="stroke: black; stroke-linecap:round; stroke-width:0.25; stroke-dasharray:3,3;"/>
<line x1="31.450000" y1="263.000000" x2="282.950000" y2="263.000000"  style="stroke: black; stroke-linecap:round; stroke-width:0.25; stroke-dasharray:3,3;"/>
<line x1="282.950000" y1="263.000000" x2="282.950000" y2="181.000000"  style="stroke: black; stroke-linecap:round; stroke-width:0.25; stroke-dasharray:3,3;"/>
<line x1="31.450000" y1="181.000000" x2="36.450000" y2="181.000000"  style="stroke: black; stroke-linecap:round; stroke-width:0.25; stroke-dasharray:3,3;"/>
<line x1="62.250000" y1="181.000000" x2="282.950000" y2="181.000000"  style="stroke: black; stroke-linecap:round; stroke-width:0.25; stroke-dasharray:3,3;"/>
<text x="36.450000" y="183.000000" font-family="Arial" font-size="7">inGain</text>
<rect x="307.400000" y="165.000000" width="24.000000" height="24.000000" rx="0" ry="0" style="stroke:none;fill:#cccccc;"/>
<rect x="306.400000" y="164.000000" width="24.000000" height="24.000000" rx="0" ry="0" style="stroke:none;fill:#4B71A1;"/>
<text x="318.400000" y="178.000000" font-family="Arial" font-size="7" text-anchor="middle" fill="#FFFFFF">-</text>
<circle cx="308.400000" cy="166.000000" r="1"/>
<line x1="303.400000" y1="171.000000" x2="306.400000" y2="172.000000"  transform="rotate(0.000000,306.400000,172.000000)" style="stroke: black; stroke-width:0.25;"/>
<line x1="303.400000" y1="173.000000" x2="306.400000" y2="172.000000"  transform="rotate(0.000000,306.400000,172.000000)" style="stroke: black; stroke-width:0.25;"/>
<line x1="303.400000" y1="179.000000" x2="306.400000" y2="180.000000"  transform="rotate(0.000000,306.400000,180.000000)" style="stroke: black; stroke-width:0.25;"/>
<line x1="303.400000" y1="181.000000" x2="306.400000" y2="180.000000"  transform="rotate(0.000000,306.400000,180.000000)" style="stroke: black; stroke-width:0.25;"/>
<rect x="347.400000" y="149.000000" width="24.000000" height="24.000000" rx="0" ry="0" style="stroke:none;fill:#cccccc;"/>
<rect x="346.400000" y="148.000000" width="24.000000" height="24.000000" rx="0" ry="0" style="stroke:none;fill:#4B71A1;"/>
<text x="358.400000" y="162.000000" font-family="Arial" font-size="7" text-anchor="middle" fill="#FFFFFF">-</text>
<circle cx="348.400000" cy="150.000000" r="1"/>
<line x1="343.400000" y1="155.000000" x2="346.400000" y2="156.000000"  transform="rotate(0.000000,346.400000,156.000000)" style="stroke: black; stroke-width:0.25;"/>
<line x1="343.400000" y1="157.000000" x2="346.400000" y2="156.000000"  transform="rotate(0.000000,346.400000,156.000000)" style="stroke: black; stroke-width:0.25;"/>
<line x1="343.400000" y1="163.000000" x2="346.400000" y2="164.000000"  transform="rotate(0.000000,346.400000,164.000000)" style="stroke: black; stroke-width:0.25;"/>
<line x1="343.400000" y1="165.000000" x2="346.400000" y2="164.000000"  transform="rotate(0.000000,346.400000,164.000000)" style="stroke: black; stroke-width:0.25;"/>
<rect x="387.400000" y="145.000000" width="24.000000" height="24.000000" rx="0" ry="0" style="stroke:none;fill:#cccccc;"/>
<rect x="386.400000" y="144.000000" width="24.000000" height="24.000000" rx="0" ry="0" style="stroke:none;fill:#f44800;"/>
<text x="398.400000" y="158.000000" font-family="Arial" font-size="7" text-anchor="middle" fill="#FFFFFF">0</text>
<circle cx="388.400000" cy="146.000000" r="1"/>
<rect x="427.400000" y="149.000000" width="24.000000" height="24.000000" rx="0" ry="0" style="stroke:none;fill:#cccccc;"/>
<rect x="426.400000" y="148.000000" width="24.000000" height="24.000000" rx="0" ry="0" style="stroke:none;fill:#4B71A1;"/>
<text x="438.400000" y="162.000000" font-family="Arial" font-size="7" text-anchor="middle" fill="#FFFFFF">max</text>
<circle cx="428.400000" cy="150.000000" r="1"/>
<line x1="423.400000" y1="155.000000" x2="426.400000" y2="156.000000"  transform="rotate(0.000000,426.400000,156.000000)" style="stroke: black; stroke-width:0.25;"/>
<line x1="423.400000" y1="157.000000" x2="426.400000" y2="156.000000"  transform="rotate(0.000000,426.400000,156.000000)" style="stroke: black; stroke-width:0.25;"/>
<line x1="423.400000" y1="163.000000" x2="426.400000" y2="164.000000"  transform="rotate(0.000000,426.400000,164.000000)" style="stroke: black; stroke-width:0.25;"/>
<line x1="423.400000" y1="165.000000" x2="426.400000" y2="164.000000"  transform="rotate(0.000000,426.400000,164.000000)" style="stroke: black; stroke-width:0.25;"/>
<rect x="467.400000" y="133.000000" width="24.000000" height="24.000000" rx="0" ry="0" style="stroke:none;fill:#cccccc;"/>
<rect x="466.400000" y="132.000000" width="24.000000" height="24.000000" rx="0" ry="0" style="stroke:none;fill:#4B71A1;"/>
<text x="478.400000" y="146.000000" font-family="Arial" font-size="7" text-anchor="middle" fill="#FFFFFF">-</text>
<circle cx="468.400000" cy="134.000000" r="1"/>
<line x1="463.400000" y1="139.000000" x2="466.400000" y2="140.000000"  transform="rotate(0.000000,466.400000,140.000000)" style="stroke: black; stroke-width:0.25;"/>
<line x1="463.400000" y1="141.000000" x2="466.400000" y2="140.000000"  transform="rotate(0.000000,466.400000,140.000000)" style="stroke: black; stroke-width:0.25;"/>
<line x1="463.400000" y1="147.000000" x2="466.400000" y2="148.000000"  transform="rotate(0.000000,466.400000,148.000000)" style="stroke: black; stroke-width:0.25;"/>
<line x1="463.400000" y1="149.000000" x2="466.400000" y2="148.000000"  transform="rotate(0.000000,466.400000,148.000000)" style="stroke: black; stroke-width:0.25;"/>
<line x1="15.000000" y1="15.000000" x2="15.000000" y2="273.000000"  style="stroke: black; stroke-linecap:round; stroke-width:0.25; stroke-dasharray:3,3;"/>
<line x1="15.000000" y1="273.000000" x2="507.400000" y2="273.000000"  style="stroke: black; stroke-linecap:round; stroke-width:0.25; stroke-dasharray:3,3;"/>
<line x1="507.400000" y1="273.000000" x2="507.400000" y2="15.000000"  style="stroke: black; stroke-linecap:round; stroke-width:0.25; stroke-dasharray:3,3;"/>
<line x1="15.000000" y1="15.000000" x2="20.000000" y2="15.000000"  style="stroke: black; stroke-linecap:round; stroke-width:0.25; stroke-dasharray:3,3;"/>
<line x1="74.825000" y1="15.000000" x2="507.400000" y2="15.000000"  style="stroke: black; stroke-linecap:round; stroke-width:0.25; stroke-dasharray:3,3;"/>
<text x="20.000000" y="17.000000" font-family="Arial" font-size="7">currentdown(x1)</text>
<line x1="509.400000" y1="143.000000" x2="512.400000" y2="144.000000"  transform="rotate(0.000000,512.400000,144.000000)" style="stroke: black; stroke-width:0.25;"/>
<line x1="509.400000" y1="145.000000" x2="512.400000" y2="144.000000"  transform="rotate(0.000000,512.400000,144.000000)" style="stroke: black; stroke-width:0.25;"/>
<line x1="215.900000" y1="68.000000" x2="219.900000" y2="68.000000"  style="stroke:black; stroke-linecap:round; stroke-width:0.25;"/>
<line x1="219.900000" y1="68.000000" x2="334.400000" y2="68.000000"  style="stroke:black; stroke-linecap:round; stroke-width:0.25;"/>
<line x1="249.200000" y1="36.000000" x2="253.200000" y2="36.000000"  style="stroke:black; stroke-linecap:round; stroke-width:0.25;"/>
<line x1="253.200000" y1="36.000000" x2="454.400000" y2="36.000000"  style="stroke:black; stroke-linecap:round; stroke-width:0.25;"/>
<line x1="253.950000" y1="222.000000" x2="257.950000" y2="222.000000"  style="stroke:black; stroke-linecap:round; stroke-width:0.25;"/>
<line x1="257.950000" y1="222.000000" x2="267.950000" y2="222.000000"  style="stroke:black; stroke-linecap:round; stroke-width:0.25;"/>
<line x1="260.400000" y1="130.000000" x2="264.400000" y2="130.000000"  style="stroke:black; stroke-linecap:round; stroke-width:0.25;"/>
<line x1="264.400000" y1="130.000000" x2="274.400000" y2="130.000000"  style="stroke:black; stroke-linecap:round; stroke-width:0.25;"/>
<line x1="267.950000" y1="222.000000" x2="277.950000" y2="222.000000"  style="stroke:black; stroke-linecap:round; stroke-width:0.25;"/>
<line x1="274.400000" y1="130.000000" x2="284.400000" y2="130.000000"  style="stroke:black; stroke-linecap:round; stroke-width:0.25;"/>
<line x1="277.950000" y1="222.000000" x2="287.950000" y2="222.000000"  style="stroke:black; stroke-linecap:round; stroke-width:0.25;"/>
<line x1="284.400000" y1="130.000000" x2="294.400000" y2="130.000000"  style="stroke:black; stroke-linecap:round; stroke-width:0.25;"/>
<line x1="287.950000" y1="222.000000" x2="294.400000" y2="222.000000"  style="stroke:black; stroke-linecap:round; stroke-width:0.25;"/>
<line x1="294.400000" y1="130.000000" x2="302.400000" y2="130.000000"  style="stroke:black; stroke-linecap:round; stroke-width:0.25;"/>
<line x1="294.400000" y1="180.000000" x2="302.400000" y2="180.000000"  style="stroke:black; stroke-linecap:round; stroke-width:0.25;"/>
<line x1="294.400000" y1="222.000000" x2="294.400000" y2="180.000000"  style="stroke:black; stroke-linecap:round; stroke-width:0.25;"/>
<line x1="294.400000" y1="222.000000" x2="294.400000" y2="222.000000"  style="stroke:black; stroke-linecap:round; stroke-width:0.25;"/>
<line x1="302.400000" y1="130.000000" x2="302.400000" y2="172.000000"  style="stroke:black; stroke-linecap:round; stroke-width:0.25;"/>
<line x1="302.400000" y1="172.000000" x2="302.400000" y2="172.000000"  style="stroke:black; stroke-linecap:round; stroke-width:0.25;"/>
<line x1="302.400000" y1="172.000000" x2="306.400000" y2="172.000000"  style="stroke:black; stroke-linecap:round; stroke-width:0.25;"/>
<line x1="302.400000" y1="180.000000" x2="306.400000" y2="180.000000"  style="stroke:black; stroke-linecap:round; stroke-width:0.25;"/>
<line x1="330.400000" y1="176.000000" x2="334.400000" y2="176.000000"  style="stroke:black; stroke-linecap:round; stroke-width:0.25;"/>
<line x1="334.400000" y1="68.000000" x2="342.400000" y2="68.000000"  style="stroke:black; stroke-linecap:round; stroke-width:0.25;"/>
<line x1="334.400000" y1="164.000000" x2="342.400000" y2="164.000000"  style="stroke:black; stroke-linecap:round; stroke-width:0.25;"/>
<line x1="334.400000" y1="176.000000" x2="334.400000" y2="164.000000"  style="stroke:black; stroke-linecap:round; stroke-width:0.25;"/>
<line x1="334.400000" y1="176.000000" x2="334.400000" y2="176.000000"  style="stroke:black; stroke-linecap:round; stroke-width:0.25;"/>
<line x1="342.400000" y1="68.000000" x2="342.400000" y2="156.000000"  style="stroke:black; stroke-linecap:round; stroke-width:0.25;"/>
<line x1="342.400000" y1="156.000000" x2="342.400000" y2="156.000000"  style="stroke:black; stroke-linecap:round; stroke-width:0.25;"/>
<line x1="342.400000" y1="156.000000" x2="346.400000" y2="156.000000"  style="stroke:black; stroke-linecap:round; stroke-width:0.25;"/>
<line x1="342.400000" y1="164.000000" x2="346.400000" y2="164.000000"  style="stroke:black; stroke-linecap:round; stroke-width:0.25;"/>
<line x1="370.400000" y1="160.000000" x2="374.400000" y2="160.000000"  style="stroke:black; stroke-linecap:round; stroke-width:0.25;"/>
<line x1="374.400000" y1="160.000000" x2="382.400000" y2="160.000000"  style="stroke:black; stroke-linecap:round; stroke-width:0.25;"/>
<line x1="382.400000" y1="160.000000" x2="382.400000" y2="176.000000"  style="stroke:black; stroke-linecap:round; stroke-width:0.25;"/>
<line x1="382.400000" y1="176.000000" x2="382.400000" y2="176.000000"  style="stroke:black; stroke-linecap:round; stroke-width:0.25;"/>
<line x1="382.400000" y1="176.000000" x2="398.400000" y2="176.000000"  style="stroke:black; stroke-linecap:round; stroke-width:0.25;"/>
<line x1="398.400000" y1="176.000000" x2="414.400000" y2="176.000000"  style="stroke:black; stroke-linecap:round; stroke-width:0.25;"/>
<line x1="410.400000" y1="156.000000" x2="414.400000" y2="156.000000"  style="stroke:black; stroke-linecap:round; stroke-width:0.25;"/>
<line x1="414.400000" y1="156.000000" x2="422.400000" y2="156.000000"  style="stroke:black; stroke-linecap:round; stroke-width:0.25;"/>
<line x1="414.400000" y1="164.000000" x2="422.400000" y2="164.000000"  style="stroke:black; stroke-linecap:round; stroke-width:0.25;"/>
<line x1="414.400000" y1="176.000000" x2="414.400000" y2="164.000000"  style="stroke:black; stroke-linecap:round; stroke-width:0.25;"/>
<line x1="414.400000" y1="176.000000" x2="414.400000" y2="176.000000"  style="stroke:black; stroke-linecap:round; stroke-width:0.25;"/>
<line x1="422.400000" y1="156.000000" x2="426.400000" y2="156.000000"  style="stroke:black; stroke-linecap:round; stroke-width:0.25;"/>
<line x1="422.400000" y1="164.000000" x2="426.400000" y2="164.000000"  style="stroke:black; stroke-linecap:round; stroke-width:0.25;"/>
<line x1="450.400000" y1="160.000000" x2="454.400000" y2="160.000000"  style="stroke:black; stroke-linecap:round; stroke-width:0.25;"/>
<line x1="454.400000" y1="36.000000" x2="462.400000" y2="36.000000"  style="stroke:black; stroke-linecap:round; stroke-width:0.25;"/>
<line x1="454.400000" y1="148.000000" x2="462.400000" y2="148.000000"  style="stroke:black; stroke-linecap:round; stroke-width:0.25;"/>
<line x1="454.400000" y1="160.000000" x2="454.400000" y2="148.000000"  style="stroke:black; stroke-linecap:round; stroke-width:0.25;"/>
<line x1="454.400000" y1="160.000000" x2="454.400000" y2="160.000000"  style="stroke:black; stroke-linecap:round; stroke-width:0.25;"/>
<line x1="462.400000" y1="36.000000" x2="462.400000" y2="140.000000"  style="stroke:black; stroke-linecap:round; stroke-width:0.25;"/>
<line x1="462.400000" y1="140.000000" x2="462.400000" y2="140.000000"  style="stroke:black; stroke-linecap:round; stroke-width:0.25;"/>
<line x1="462.400000" y1="140.000000" x2="466.400000" y2="140.000000"  style="stroke:black; stroke-linecap:round; stroke-width:0.25;"/>
<line x1="462.400000" y1="148.000000" x2="466.400000" y2="148.000000"  style="stroke:black; stroke-linecap:round; stroke-width:0.25;"/>
<line x1="490.400000" y1="144.000000" x2="494.400000" y2="144.000000"  style="stroke:black; stroke-linecap:round; stroke-width:0.25;"/>
<line x1="494.400000" y1="144.000000" x2="494.400000" y2="144.000000"  style="stroke:black; stroke-linecap:round; stroke-width:0.25;"/>
<line x1="494.400000" y1="144.000000" x2="498.400000" y2="144.000000"  style="stroke:black; stroke-linecap:round; stroke-width:0.25;"/>
<line x1="498.400000" y1="144.000000" x2="502.400000" y2="144.000000"  style="stroke:black; stroke-linecap:round; stroke-width:0.25;"/>
<line x1="502.400000" y1="144.000000" x2="512.400000" y2="144.000000"  style="stroke:black; stroke-linecap:round; stroke-width:0.25;"/>
</svg>
