<?xml version="1.0"?>
<svg xmlns="http://www.w3.org/2000/svg" xmlns:xlink="http://www.w3.org/1999/xlink" viewBox="0 0 289.000000 140.000000" width="144.500000mm" height="70.000000mm" version="1.1">
<a xlink:href="LookAheadLimiter-0x9b363f0.svg">
<rect x="1.000000" y="1.000000" width="288.000000" height="139.000000" rx="0" ry="0" style="stroke:none;fill:#cccccc;"/>
<rect x="0.000000" y="0.000000" width="288.000000" height="139.000000" rx="0" ry="0" style="stroke:none;fill:#ffffff;"/>
</a>
<text x="10.000000" y="7.000000" font-family="Arial" font-size="7"></text>
<a xlink:href="attackGainReduct-0x9b36010.svg">
<rect x="65.000000" y="33.000000" width="90.300000" height="32.000000" rx="0" ry="0" style="stroke:none;fill:#cccccc;"/>
<rect x="64.000000" y="32.000000" width="90.300000" height="32.000000" rx="0" ry="0" style="stroke:none;fill:#003366;"/>
</a>
<a xlink:href="attackGainReduct-0x9b36010.svg">
<text x="109.150000" y="50.000000" font-family="Arial" font-size="7" text-anchor="middle" fill="#FFFFFF">attackGainReduction</text>
</a>
<circle cx="66.000000" cy="34.000000" r="1"/>
<line x1="61.000000" y1="35.000000" x2="64.000000" y2="36.000000"  transform="rotate(0.000000,64.000000,36.000000)" style="stroke: black; stroke-width:0.25;"/>
<line x1="61.000000" y1="37.000000" x2="64.000000" y2="36.000000"  transform="rotate(0.000000,64.000000,36.000000)" style="stroke: black; stroke-width:0.25;"/>
<line x1="61.000000" y1="43.000000" x2="64.000000" y2="44.000000"  transform="rotate(0.000000,64.000000,44.000000)" style="stroke: black; stroke-width:0.25;"/>
<line x1="61.000000" y1="45.000000" x2="64.000000" y2="44.000000"  transform="rotate(0.000000,64.000000,44.000000)" style="stroke: black; stroke-width:0.25;"/>
<line x1="61.000000" y1="51.000000" x2="64.000000" y2="52.000000"  transform="rotate(0.000000,64.000000,52.000000)" style="stroke: black; stroke-width:0.25;"/>
<line x1="61.000000" y1="53.000000" x2="64.000000" y2="52.000000"  transform="rotate(0.000000,64.000000,52.000000)" style="stroke: black; stroke-width:0.25;"/>
<line x1="61.000000" y1="59.000000" x2="64.000000" y2="60.000000"  transform="rotate(0.000000,64.000000,60.000000)" style="stroke: black; stroke-width:0.25;"/>
<line x1="61.000000" y1="61.000000" x2="64.000000" y2="60.000000"  transform="rotate(0.000000,64.000000,60.000000)" style="stroke: black; stroke-width:0.25;"/>
<rect x="98.150000" y="83.000000" width="24.000000" height="24.000000" rx="0" ry="0" style="stroke:none;fill:#cccccc;"/>
<rect x="97.150000" y="82.000000" width="24.000000" height="24.000000" rx="0" ry="0" style="stroke:none;fill:#f44800;"/>
<text x="109.150000" y="96.000000" font-family="Arial" font-size="7" text-anchor="middle" fill="#FFFFFF">2</text>
<circle cx="99.150000" cy="84.000000" r="1"/>
<line x1="88.150000" y1="73.000000" x2="88.150000" y2="115.000000"  style="stroke: black; stroke-linecap:round; stroke-width:0.25; stroke-dasharray:3,3;"/>
<line x1="88.150000" y1="115.000000" x2="130.150000" y2="115.000000"  style="stroke: black; stroke-linecap:round; stroke-width:0.25; stroke-dasharray:3,3;"/>
<line x1="130.150000" y1="115.000000" x2="130.150000" y2="73.000000"  style="stroke: black; stroke-linecap:round; stroke-width:0.25; stroke-dasharray:3,3;"/>
<line x1="88.150000" y1="73.000000" x2="93.150000" y2="73.000000"  style="stroke: black; stroke-linecap:round; stroke-width:0.25; stroke-dasharray:3,3;"/>
<line x1="112.500000" y1="73.000000" x2="130.150000" y2="73.000000"  style="stroke: black; stroke-linecap:round; stroke-width:0.25; stroke-dasharray:3,3;"/>
<text x="93.150000" y="75.000000" font-family="Arial" font-size="7">hold</text>
<rect x="171.300000" y="63.000000" width="24.000000" height="24.000000" rx="0" ry="0" style="stroke:none;fill:#cccccc;"/>
<rect x="170.300000" y="62.000000" width="24.000000" height="24.000000" rx="0" ry="0" style="stroke:none;fill:#4B71A1;"/>
<text x="182.300000" y="76.000000" font-family="Arial" font-size="7" text-anchor="middle" fill="#FFFFFF">min</text>
<circle cx="172.300000" cy="64.000000" r="1"/>
<line x1="167.300000" y1="69.000000" x2="170.300000" y2="70.000000"  transform="rotate(0.000000,170.300000,70.000000)" style="stroke: black; stroke-width:0.25;"/>
<line x1="167.300000" y1="71.000000" x2="170.300000" y2="70.000000"  transform="rotate(0.000000,170.300000,70.000000)" style="stroke: black; stroke-width:0.25;"/>
<line x1="167.300000" y1="77.000000" x2="170.300000" y2="78.000000"  transform="rotate(0.000000,170.300000,78.000000)" style="stroke: black; stroke-width:0.25;"/>
<line x1="167.300000" y1="79.000000" x2="170.300000" y2="78.000000"  transform="rotate(0.000000,170.300000,78.000000)" style="stroke: black; stroke-width:0.25;"/>
<line x1="196.300000" y1="74.000000" x2="196.300000" y2="70.000000"  style="stroke:black; stroke-linecap:round; stroke-width:0.25;"/>
<line x1="196.300000" y1="70.000000" x2="200.300000" y2="70.000000"  style="stroke:black; stroke-linecap:round; stroke-width:0.25;"/>
<line x1="200.300000" y1="70.000000" x2="200.300000" y2="74.000000"  style="stroke:black; stroke-linecap:round; stroke-width:0.25;"/>
<a xlink:href="db2linear-0x9b36fe0.svg">
<rect x="219.300000" y="59.000000" width="38.700000" height="24.000000" rx="0" ry="0" style="stroke:none;fill:#cccccc;"/>
<rect x="218.300000" y="58.000000" width="38.700000" height="24.000000" rx="0" ry="0" style="stroke:none;fill:#003366;"/>
</a>
<a xlink:href="db2linear-0x9b36fe0.svg">
<text x="237.650000" y="72.000000" font-family="Arial" font-size="7" text-anchor="middle" fill="#FFFFFF">db2linear</text>
</a>
<circle cx="220.300000" cy="60.000000" r="1"/>
<line x1="215.300000" y1="69.000000" x2="218.300000" y2="70.000000"  transform="rotate(0.000000,218.300000,70.000000)" style="stroke: black; stroke-width:0.25;"/>
<line x1="215.300000" y1="71.000000" x2="218.300000" y2="70.000000"  transform="rotate(0.000000,218.300000,70.000000)" style="stroke: black; stroke-width:0.25;"/>
<line x1="15.000000" y1="15.000000" x2="15.000000" y2="125.000000"  style="stroke: black; stroke-linecap:round; stroke-width:0.25; stroke-dasharray:3,3;"/>
<line x1="15.000000" y1="125.000000" x2="274.000000" y2="125.000000"  style="stroke: black; stroke-linecap:round; stroke-width:0.25; stroke-dasharray:3,3;"/>
<line x1="274.000000" y1="125.000000" x2="274.000000" y2="15.000000"  style="stroke: black; stroke-linecap:round; stroke-width:0.25; stroke-dasharray:3,3;"/>
<line x1="15.000000" y1="15.000000" x2="20.000000" y2="15.000000"  style="stroke: black; stroke-linecap:round; stroke-width:0.25; stroke-dasharray:3,3;"/>
<line x1="71.600000" y1="15.000000" x2="274.000000" y2="15.000000"  style="stroke: black; stroke-linecap:round; stroke-width:0.25; stroke-dasharray:3,3;"/>
<text x="20.000000" y="17.000000" font-family="Arial" font-size="7">GainCalculator</text>
<line x1="276.000000" y1="69.000000" x2="279.000000" y2="70.000000"  transform="rotate(0.000000,279.000000,70.000000)" style="stroke: black; stroke-width:0.25;"/>
<line x1="276.000000" y1="71.000000" x2="279.000000" y2="70.000000"  transform="rotate(0.000000,279.000000,70.000000)" style="stroke: black; stroke-width:0.25;"/>
<line x1="10.000000" y1="62.000000" x2="20.000000" y2="62.000000"  style="stroke:black; stroke-linecap:round; stroke-width:0.25;"/>
<line x1="10.000000" y1="70.000000" x2="20.000000" y2="70.000000"  style="stroke:black; stroke-linecap:round; stroke-width:0.25;"/>
<line x1="10.000000" y1="78.000000" x2="20.000000" y2="78.000000"  style="stroke:black; stroke-linecap:round; stroke-width:0.25;"/>
<line x1="20.000000" y1="62.000000" x2="24.000000" y2="62.000000"  style="stroke:black; stroke-linecap:round; stroke-width:0.25;"/>
<line x1="20.000000" y1="70.000000" x2="24.000000" y2="70.000000"  style="stroke:black; stroke-linecap:round; stroke-width:0.25;"/>
<line x1="20.000000" y1="78.000000" x2="24.000000" y2="78.000000"  style="stroke:black; stroke-linecap:round; stroke-width:0.25;"/>
<line x1="24.000000" y1="62.000000" x2="28.000000" y2="62.000000"  style="stroke:black; stroke-linecap:round; stroke-width:0.25;"/>
<line x1="24.000000" y1="70.000000" x2="28.000000" y2="70.000000"  style="stroke:black; stroke-linecap:round; stroke-width:0.25;"/>
<line x1="24.000000" y1="78.000000" x2="28.000000" y2="78.000000"  style="stroke:black; stroke-linecap:round; stroke-width:0.25;"/>
<line x1="28.000000" y1="44.000000" x2="52.000000" y2="44.000000"  style="stroke:black; stroke-linecap:round; stroke-width:0.25;"/>
<line x1="28.000000" y1="62.000000" x2="28.000000" y2="44.000000"  style="stroke:black; stroke-linecap:round; stroke-width:0.25;"/>
<line x1="28.000000" y1="62.000000" x2="28.000000" y2="62.000000"  style="stroke:black; stroke-linecap:round; stroke-width:0.25;"/>
<line x1="28.000000" y1="70.000000" x2="36.000000" y2="70.000000"  style="stroke:black; stroke-linecap:round; stroke-width:0.25;"/>
<line x1="28.000000" y1="78.000000" x2="44.000000" y2="78.000000"  style="stroke:black; stroke-linecap:round; stroke-width:0.25;"/>
<line x1="36.000000" y1="52.000000" x2="52.000000" y2="52.000000"  style="stroke:black; stroke-linecap:round; stroke-width:0.25;"/>
<line x1="36.000000" y1="70.000000" x2="36.000000" y2="52.000000"  style="stroke:black; stroke-linecap:round; stroke-width:0.25;"/>
<line x1="44.000000" y1="60.000000" x2="52.000000" y2="60.000000"  style="stroke:black; stroke-linecap:round; stroke-width:0.25;"/>
<line x1="44.000000" y1="78.000000" x2="44.000000" y2="60.000000"  style="stroke:black; stroke-linecap:round; stroke-width:0.25;"/>
<line x1="52.000000" y1="44.000000" x2="60.000000" y2="44.000000"  style="stroke:black; stroke-linecap:round; stroke-width:0.25;"/>
<line x1="52.000000" y1="52.000000" x2="60.000000" y2="52.000000"  style="stroke:black; stroke-linecap:round; stroke-width:0.25;"/>
<line x1="52.000000" y1="60.000000" x2="60.000000" y2="60.000000"  style="stroke:black; stroke-linecap:round; stroke-width:0.25;"/>
<line x1="60.000000" y1="24.000000" x2="60.000000" y2="24.000000"  style="stroke:black; stroke-linecap:round; stroke-width:0.25;"/>
<line x1="60.000000" y1="24.000000" x2="60.000000" y2="36.000000"  style="stroke:black; stroke-linecap:round; stroke-width:0.25;"/>
<line x1="60.000000" y1="36.000000" x2="60.000000" y2="36.000000"  style="stroke:black; stroke-linecap:round; stroke-width:0.25;"/>
<line x1="60.000000" y1="36.000000" x2="64.000000" y2="36.000000"  style="stroke:black; stroke-linecap:round; stroke-width:0.25;"/>
<line x1="60.000000" y1="44.000000" x2="64.000000" y2="44.000000"  style="stroke:black; stroke-linecap:round; stroke-width:0.25;"/>
<line x1="60.000000" y1="52.000000" x2="64.000000" y2="52.000000"  style="stroke:black; stroke-linecap:round; stroke-width:0.25;"/>
<line x1="60.000000" y1="60.000000" x2="64.000000" y2="60.000000"  style="stroke:black; stroke-linecap:round; stroke-width:0.25;"/>
<line x1="121.150000" y1="94.000000" x2="125.150000" y2="94.000000"  style="stroke:black; stroke-linecap:round; stroke-width:0.25;"/>
<line x1="125.150000" y1="94.000000" x2="135.150000" y2="94.000000"  style="stroke:black; stroke-linecap:round; stroke-width:0.25;"/>
<line x1="129.150000" y1="24.000000" x2="60.000000" y2="24.000000"  style="stroke:black; stroke-linecap:round; stroke-width:0.25;"/>
<line x1="135.150000" y1="94.000000" x2="158.300000" y2="94.000000"  style="stroke:black; stroke-linecap:round; stroke-width:0.25;"/>
<line x1="154.300000" y1="48.000000" x2="158.300000" y2="48.000000"  style="stroke:black; stroke-linecap:round; stroke-width:0.25;"/>
<line x1="158.300000" y1="48.000000" x2="166.300000" y2="48.000000"  style="stroke:black; stroke-linecap:round; stroke-width:0.25;"/>
<line x1="158.300000" y1="78.000000" x2="166.300000" y2="78.000000"  style="stroke:black; stroke-linecap:round; stroke-width:0.25;"/>
<line x1="158.300000" y1="94.000000" x2="158.300000" y2="78.000000"  style="stroke:black; stroke-linecap:round; stroke-width:0.25;"/>
<line x1="158.300000" y1="94.000000" x2="158.300000" y2="94.000000"  style="stroke:black; stroke-linecap:round; stroke-width:0.25;"/>
<line x1="166.300000" y1="48.000000" x2="166.300000" y2="70.000000"  style="stroke:black; stroke-linecap:round; stroke-width:0.25;"/>
<line x1="166.300000" y1="70.000000" x2="166.300000" y2="70.000000"  style="stroke:black; stroke-linecap:round; stroke-width:0.25;"/>
<line x1="166.300000" y1="70.000000" x2="170.300000" y2="70.000000"  style="stroke:black; stroke-linecap:round; stroke-width:0.25;"/>
<line x1="166.300000" y1="78.000000" x2="170.300000" y2="78.000000"  style="stroke:black; stroke-linecap:round; stroke-width:0.25;"/>
<line x1="194.300000" y1="74.000000" x2="198.300000" y2="74.000000"  style="stroke:black; stroke-linecap:round; stroke-width:0.25;"/>
<line x1="198.300000" y1="24.000000" x2="129.150000" y2="24.000000"  style="stroke:black; stroke-linecap:round; stroke-width:0.25;"/>
<line x1="198.300000" y1="24.000000" x2="198.300000" y2="24.000000"  style="stroke:black; stroke-linecap:round; stroke-width:0.25;"/>
<line x1="198.300000" y1="70.000000" x2="198.300000" y2="24.000000"  style="stroke:black; stroke-linecap:round; stroke-width:0.25;"/>
<line x1="198.300000" y1="74.000000" x2="200.300000" y2="74.000000"  style="stroke:black; stroke-linecap:round; stroke-width:0.25;"/>
<line x1="200.300000" y1="74.000000" x2="206.300000" y2="74.000000"  style="stroke:black; stroke-linecap:round; stroke-width:0.25;"/>
<line x1="206.300000" y1="70.000000" x2="214.300000" y2="70.000000"  style="stroke:black; stroke-linecap:round; stroke-width:0.25;"/>
<line x1="206.300000" y1="74.000000" x2="206.300000" y2="70.000000"  style="stroke:black; stroke-linecap:round; stroke-width:0.25;"/>
<line x1="206.300000" y1="74.000000" x2="206.300000" y2="74.000000"  style="stroke:black; stroke-linecap:round; stroke-width:0.25;"/>
<line x1="214.300000" y1="70.000000" x2="214.300000" y2="70.000000"  style="stroke:black; stroke-linecap:round; stroke-width:0.25;"/>
<line x1="214.300000" y1="70.000000" x2="218.300000" y2="70.000000"  style="stroke:black; stroke-linecap:round; stroke-width:0.25;"/>
<line x1="257.000000" y1="70.000000" x2="261.000000" y2="70.000000"  style="stroke:black; stroke-linecap:round; stroke-width:0.25;"/>
<line x1="261.000000" y1="70.000000" x2="261.000000" y2="70.000000"  style="stroke:black; stroke-linecap:round; stroke-width:0.25;"/>
<line x1="261.000000" y1="70.000000" x2="265.000000" y2="70.000000"  style="stroke:black; stroke-linecap:round; stroke-width:0.25;"/>
<line x1="265.000000" y1="70.000000" x2="269.000000" y2="70.000000"  style="stroke:black; stroke-linecap:round; stroke-width:0.25;"/>
<line x1="269.000000" y1="70.000000" x2="279.000000" y2="70.000000"  style="stroke:black; stroke-linecap:round; stroke-width:0.25;"/>
</svg>
