<?xml version="1.0"?>
<svg xmlns="http://www.w3.org/2000/svg" xmlns:xlink="http://www.w3.org/1999/xlink" viewBox="0 0 311.700000 140.000000" width="155.850000mm" height="70.000000mm" version="1.1">
<a xlink:href="LookAheadLimiter-0x92cc0d8.svg">
<rect x="1.000000" y="1.000000" width="310.700000" height="139.000000" rx="0" ry="0" style="stroke:none;fill:#cccccc;"/>
<rect x="0.000000" y="0.000000" width="310.700000" height="139.000000" rx="0" ry="0" style="stroke:none;fill:#ffffff;"/>
</a>
<text x="10.000000" y="7.000000" font-family="Arial" font-size="7"></text>
<rect x="33.000000" y="59.000000" width="25.800000" height="24.000000" rx="0" ry="0" style="stroke:none;fill:#cccccc;"/>
<rect x="32.000000" y="58.000000" width="25.800000" height="24.000000" rx="0" ry="0" style="stroke:none;fill:#47945E;"/>
<text x="44.900000" y="72.000000" font-family="Arial" font-size="7" text-anchor="middle" fill="#FFFFFF">audio</text>
<circle cx="34.000000" cy="60.000000" r="1"/>
<line x1="29.000000" y1="69.000000" x2="32.000000" y2="70.000000"  transform="rotate(0.000000,32.000000,70.000000)" style="stroke: black; stroke-width:0.25;"/>
<line x1="29.000000" y1="71.000000" x2="32.000000" y2="70.000000"  transform="rotate(0.000000,32.000000,70.000000)" style="stroke: black; stroke-width:0.25;"/>
<a xlink:href="attackGainReduct-0x92d81d8.svg">
<rect x="74.800000" y="33.000000" width="103.200000" height="24.000000" rx="0" ry="0" style="stroke:none;fill:#cccccc;"/>
<rect x="73.800000" y="32.000000" width="103.200000" height="24.000000" rx="0" ry="0" style="stroke:none;fill:#003366;"/>
</a>
<a xlink:href="attackGainReduct-0x92d81d8.svg">
<text x="125.400000" y="46.000000" font-family="Arial" font-size="7" text-anchor="middle" fill="#FFFFFF">attackGainReduction(x2)</text>
</a>
<circle cx="75.800000" cy="34.000000" r="1"/>
<rect x="94.400000" y="83.000000" width="24.000000" height="24.000000" rx="0" ry="0" style="stroke:none;fill:#cccccc;"/>
<rect x="93.400000" y="82.000000" width="24.000000" height="24.000000" rx="0" ry="0" style="stroke:none;fill:#f44800;"/>
<text x="105.400000" y="96.000000" font-family="Arial" font-size="7" text-anchor="middle" fill="#FFFFFF">2</text>
<circle cx="95.400000" cy="84.000000" r="1"/>
<rect x="134.400000" y="79.000000" width="24.000000" height="24.000000" rx="0" ry="0" style="stroke:none;fill:#cccccc;"/>
<rect x="133.400000" y="78.000000" width="24.000000" height="24.000000" rx="0" ry="0" style="stroke:none;fill:#4B71A1;"/>
<text x="145.400000" y="92.000000" font-family="Arial" font-size="7" text-anchor="middle" fill="#FFFFFF">*</text>
<circle cx="135.400000" cy="80.000000" r="1"/>
<line x1="130.400000" y1="85.000000" x2="133.400000" y2="86.000000"  transform="rotate(0.000000,133.400000,86.000000)" style="stroke: black; stroke-width:0.25;"/>
<line x1="130.400000" y1="87.000000" x2="133.400000" y2="86.000000"  transform="rotate(0.000000,133.400000,86.000000)" style="stroke: black; stroke-width:0.25;"/>
<line x1="130.400000" y1="93.000000" x2="133.400000" y2="94.000000"  transform="rotate(0.000000,133.400000,94.000000)" style="stroke: black; stroke-width:0.25;"/>
<line x1="130.400000" y1="95.000000" x2="133.400000" y2="94.000000"  transform="rotate(0.000000,133.400000,94.000000)" style="stroke: black; stroke-width:0.25;"/>
<line x1="84.400000" y1="65.000000" x2="84.400000" y2="115.000000"  style="stroke: black; stroke-linecap:round; stroke-width:0.25; stroke-dasharray:3,3;"/>
<line x1="84.400000" y1="115.000000" x2="166.400000" y2="115.000000"  style="stroke: black; stroke-linecap:round; stroke-width:0.25; stroke-dasharray:3,3;"/>
<line x1="166.400000" y1="115.000000" x2="166.400000" y2="65.000000"  style="stroke: black; stroke-linecap:round; stroke-width:0.25; stroke-dasharray:3,3;"/>
<line x1="84.400000" y1="65.000000" x2="89.400000" y2="65.000000"  style="stroke: black; stroke-linecap:round; stroke-width:0.25; stroke-dasharray:3,3;"/>
<line x1="108.750000" y1="65.000000" x2="166.400000" y2="65.000000"  style="stroke: black; stroke-linecap:round; stroke-width:0.25; stroke-dasharray:3,3;"/>
<text x="89.400000" y="67.000000" font-family="Arial" font-size="7">hold</text>
<rect x="194.000000" y="63.000000" width="24.000000" height="24.000000" rx="0" ry="0" style="stroke:none;fill:#cccccc;"/>
<rect x="193.000000" y="62.000000" width="24.000000" height="24.000000" rx="0" ry="0" style="stroke:none;fill:#4B71A1;"/>
<text x="205.000000" y="76.000000" font-family="Arial" font-size="7" text-anchor="middle" fill="#FFFFFF">min</text>
<circle cx="195.000000" cy="64.000000" r="1"/>
<line x1="190.000000" y1="69.000000" x2="193.000000" y2="70.000000"  transform="rotate(0.000000,193.000000,70.000000)" style="stroke: black; stroke-width:0.25;"/>
<line x1="190.000000" y1="71.000000" x2="193.000000" y2="70.000000"  transform="rotate(0.000000,193.000000,70.000000)" style="stroke: black; stroke-width:0.25;"/>
<line x1="190.000000" y1="77.000000" x2="193.000000" y2="78.000000"  transform="rotate(0.000000,193.000000,78.000000)" style="stroke: black; stroke-width:0.25;"/>
<line x1="190.000000" y1="79.000000" x2="193.000000" y2="78.000000"  transform="rotate(0.000000,193.000000,78.000000)" style="stroke: black; stroke-width:0.25;"/>
<line x1="219.000000" y1="74.000000" x2="219.000000" y2="70.000000"  style="stroke:black; stroke-linecap:round; stroke-width:0.25;"/>
<line x1="219.000000" y1="70.000000" x2="223.000000" y2="70.000000"  style="stroke:black; stroke-linecap:round; stroke-width:0.25;"/>
<line x1="223.000000" y1="70.000000" x2="223.000000" y2="74.000000"  style="stroke:black; stroke-linecap:round; stroke-width:0.25;"/>
<a xlink:href="db2linear-0x92d91f8.svg">
<rect x="242.000000" y="59.000000" width="38.700000" height="24.000000" rx="0" ry="0" style="stroke:none;fill:#cccccc;"/>
<rect x="241.000000" y="58.000000" width="38.700000" height="24.000000" rx="0" ry="0" style="stroke:none;fill:#003366;"/>
</a>
<a xlink:href="db2linear-0x92d91f8.svg">
<text x="260.350000" y="72.000000" font-family="Arial" font-size="7" text-anchor="middle" fill="#FFFFFF">db2linear</text>
</a>
<circle cx="243.000000" cy="60.000000" r="1"/>
<line x1="238.000000" y1="69.000000" x2="241.000000" y2="70.000000"  transform="rotate(0.000000,241.000000,70.000000)" style="stroke: black; stroke-width:0.25;"/>
<line x1="238.000000" y1="71.000000" x2="241.000000" y2="70.000000"  transform="rotate(0.000000,241.000000,70.000000)" style="stroke: black; stroke-width:0.25;"/>
<line x1="15.000000" y1="15.000000" x2="15.000000" y2="125.000000"  style="stroke: black; stroke-linecap:round; stroke-width:0.25; stroke-dasharray:3,3;"/>
<line x1="15.000000" y1="125.000000" x2="296.700000" y2="125.000000"  style="stroke: black; stroke-linecap:round; stroke-width:0.25; stroke-dasharray:3,3;"/>
<line x1="296.700000" y1="125.000000" x2="296.700000" y2="15.000000"  style="stroke: black; stroke-linecap:round; stroke-width:0.25; stroke-dasharray:3,3;"/>
<line x1="15.000000" y1="15.000000" x2="20.000000" y2="15.000000"  style="stroke: black; stroke-linecap:round; stroke-width:0.25; stroke-dasharray:3,3;"/>
<line x1="71.600000" y1="15.000000" x2="296.700000" y2="15.000000"  style="stroke: black; stroke-linecap:round; stroke-width:0.25; stroke-dasharray:3,3;"/>
<text x="20.000000" y="17.000000" font-family="Arial" font-size="7">GainCalculator</text>
<line x1="298.700000" y1="69.000000" x2="301.700000" y2="70.000000"  transform="rotate(0.000000,301.700000,70.000000)" style="stroke: black; stroke-width:0.25;"/>
<line x1="298.700000" y1="71.000000" x2="301.700000" y2="70.000000"  transform="rotate(0.000000,301.700000,70.000000)" style="stroke: black; stroke-width:0.25;"/>
<line x1="10.000000" y1="70.000000" x2="20.000000" y2="70.000000"  style="stroke:black; stroke-linecap:round; stroke-width:0.25;"/>
<line x1="20.000000" y1="70.000000" x2="24.000000" y2="70.000000"  style="stroke:black; stroke-linecap:round; stroke-width:0.25;"/>
<line x1="24.000000" y1="70.000000" x2="28.000000" y2="70.000000"  style="stroke:black; stroke-linecap:round; stroke-width:0.25;"/>
<line x1="28.000000" y1="70.000000" x2="28.000000" y2="70.000000"  style="stroke:black; stroke-linecap:round; stroke-width:0.25;"/>
<line x1="28.000000" y1="70.000000" x2="32.000000" y2="70.000000"  style="stroke:black; stroke-linecap:round; stroke-width:0.25;"/>
<line x1="69.800000" y1="24.000000" x2="69.800000" y2="24.000000"  style="stroke:black; stroke-linecap:round; stroke-width:0.25;"/>
<line x1="69.800000" y1="24.000000" x2="69.800000" y2="74.000000"  style="stroke:black; stroke-linecap:round; stroke-width:0.25;"/>
<line x1="69.800000" y1="74.000000" x2="69.800000" y2="74.000000"  style="stroke:black; stroke-linecap:round; stroke-width:0.25;"/>
<line x1="69.800000" y1="74.000000" x2="79.400000" y2="74.000000"  style="stroke:black; stroke-linecap:round; stroke-width:0.25;"/>
<line x1="79.400000" y1="74.000000" x2="89.400000" y2="74.000000"  style="stroke:black; stroke-linecap:round; stroke-width:0.25;"/>
<line x1="89.400000" y1="74.000000" x2="105.400000" y2="74.000000"  style="stroke:black; stroke-linecap:round; stroke-width:0.25;"/>
<line x1="105.400000" y1="74.000000" x2="121.400000" y2="74.000000"  style="stroke:black; stroke-linecap:round; stroke-width:0.25;"/>
<line x1="117.400000" y1="94.000000" x2="121.400000" y2="94.000000"  style="stroke:black; stroke-linecap:round; stroke-width:0.25;"/>
<line x1="121.400000" y1="74.000000" x2="129.400000" y2="74.000000"  style="stroke:black; stroke-linecap:round; stroke-width:0.25;"/>
<line x1="121.400000" y1="94.000000" x2="129.400000" y2="94.000000"  style="stroke:black; stroke-linecap:round; stroke-width:0.25;"/>
<line x1="129.400000" y1="74.000000" x2="129.400000" y2="86.000000"  style="stroke:black; stroke-linecap:round; stroke-width:0.25;"/>
<line x1="129.400000" y1="86.000000" x2="129.400000" y2="86.000000"  style="stroke:black; stroke-linecap:round; stroke-width:0.25;"/>
<line x1="129.400000" y1="86.000000" x2="133.400000" y2="86.000000"  style="stroke:black; stroke-linecap:round; stroke-width:0.25;"/>
<line x1="129.400000" y1="94.000000" x2="133.400000" y2="94.000000"  style="stroke:black; stroke-linecap:round; stroke-width:0.25;"/>
<line x1="145.400000" y1="24.000000" x2="69.800000" y2="24.000000"  style="stroke:black; stroke-linecap:round; stroke-width:0.25;"/>
<line x1="157.400000" y1="90.000000" x2="161.400000" y2="90.000000"  style="stroke:black; stroke-linecap:round; stroke-width:0.25;"/>
<line x1="161.400000" y1="90.000000" x2="171.400000" y2="90.000000"  style="stroke:black; stroke-linecap:round; stroke-width:0.25;"/>
<line x1="171.400000" y1="90.000000" x2="181.000000" y2="90.000000"  style="stroke:black; stroke-linecap:round; stroke-width:0.25;"/>
<line x1="177.000000" y1="44.000000" x2="181.000000" y2="44.000000"  style="stroke:black; stroke-linecap:round; stroke-width:0.25;"/>
<line x1="181.000000" y1="78.000000" x2="189.000000" y2="78.000000"  style="stroke:black; stroke-linecap:round; stroke-width:0.25;"/>
<line x1="181.000000" y1="90.000000" x2="181.000000" y2="78.000000"  style="stroke:black; stroke-linecap:round; stroke-width:0.25;"/>
<line x1="181.000000" y1="90.000000" x2="181.000000" y2="90.000000"  style="stroke:black; stroke-linecap:round; stroke-width:0.25;"/>
<line x1="181.000000" y1="44.000000" x2="189.000000" y2="44.000000"  style="stroke:black; stroke-linecap:round; stroke-width:0.25;"/>
<line x1="189.000000" y1="44.000000" x2="189.000000" y2="70.000000"  style="stroke:black; stroke-linecap:round; stroke-width:0.25;"/>
<line x1="189.000000" y1="70.000000" x2="189.000000" y2="70.000000"  style="stroke:black; stroke-linecap:round; stroke-width:0.25;"/>
<line x1="189.000000" y1="70.000000" x2="193.000000" y2="70.000000"  style="stroke:black; stroke-linecap:round; stroke-width:0.25;"/>
<line x1="189.000000" y1="78.000000" x2="193.000000" y2="78.000000"  style="stroke:black; stroke-linecap:round; stroke-width:0.25;"/>
<line x1="217.000000" y1="74.000000" x2="221.000000" y2="74.000000"  style="stroke:black; stroke-linecap:round; stroke-width:0.25;"/>
<line x1="221.000000" y1="24.000000" x2="145.400000" y2="24.000000"  style="stroke:black; stroke-linecap:round; stroke-width:0.25;"/>
<line x1="221.000000" y1="24.000000" x2="221.000000" y2="24.000000"  style="stroke:black; stroke-linecap:round; stroke-width:0.25;"/>
<line x1="221.000000" y1="70.000000" x2="221.000000" y2="24.000000"  style="stroke:black; stroke-linecap:round; stroke-width:0.25;"/>
<line x1="221.000000" y1="74.000000" x2="223.000000" y2="74.000000"  style="stroke:black; stroke-linecap:round; stroke-width:0.25;"/>
<line x1="223.000000" y1="74.000000" x2="229.000000" y2="74.000000"  style="stroke:black; stroke-linecap:round; stroke-width:0.25;"/>
<line x1="229.000000" y1="70.000000" x2="237.000000" y2="70.000000"  style="stroke:black; stroke-linecap:round; stroke-width:0.25;"/>
<line x1="229.000000" y1="74.000000" x2="229.000000" y2="70.000000"  style="stroke:black; stroke-linecap:round; stroke-width:0.25;"/>
<line x1="229.000000" y1="74.000000" x2="229.000000" y2="74.000000"  style="stroke:black; stroke-linecap:round; stroke-width:0.25;"/>
<line x1="237.000000" y1="70.000000" x2="237.000000" y2="70.000000"  style="stroke:black; stroke-linecap:round; stroke-width:0.25;"/>
<line x1="237.000000" y1="70.000000" x2="241.000000" y2="70.000000"  style="stroke:black; stroke-linecap:round; stroke-width:0.25;"/>
<line x1="279.700000" y1="70.000000" x2="283.700000" y2="70.000000"  style="stroke:black; stroke-linecap:round; stroke-width:0.25;"/>
<line x1="283.700000" y1="70.000000" x2="283.700000" y2="70.000000"  style="stroke:black; stroke-linecap:round; stroke-width:0.25;"/>
<line x1="283.700000" y1="70.000000" x2="287.700000" y2="70.000000"  style="stroke:black; stroke-linecap:round; stroke-width:0.25;"/>
<line x1="287.700000" y1="70.000000" x2="291.700000" y2="70.000000"  style="stroke:black; stroke-linecap:round; stroke-width:0.25;"/>
<line x1="291.700000" y1="70.000000" x2="301.700000" y2="70.000000"  style="stroke:black; stroke-linecap:round; stroke-width:0.25;"/>
</svg>
