<?xml version="1.0"?>
<svg xmlns="http://www.w3.org/2000/svg" xmlns:xlink="http://www.w3.org/1999/xlink" viewBox="0 0 269.900000 140.000000" width="134.950000mm" height="70.000000mm" version="1.1">
<a xlink:href="process.svg">
<rect x="1.000000" y="1.000000" width="268.900000" height="139.000000" rx="0" ry="0" style="stroke:none;fill:#cccccc;"/>
<rect x="0.000000" y="0.000000" width="268.900000" height="139.000000" rx="0" ry="0" style="stroke:none;fill:#ffffff;"/>
</a>
<text x="10.000000" y="7.000000" font-family="Arial" font-size="7"></text>
<a xlink:href="attackGainReduct-0x9373c18.svg">
<rect x="33.000000" y="33.000000" width="103.200000" height="24.000000" rx="0" ry="0" style="stroke:none;fill:#cccccc;"/>
<rect x="32.000000" y="32.000000" width="103.200000" height="24.000000" rx="0" ry="0" style="stroke:none;fill:#003366;"/>
</a>
<a xlink:href="attackGainReduct-0x9373c18.svg">
<text x="83.600000" y="46.000000" font-family="Arial" font-size="7" text-anchor="middle" fill="#FFFFFF">attackGainReduction(x1)</text>
</a>
<circle cx="34.000000" cy="34.000000" r="1"/>
<rect x="52.600000" y="83.000000" width="24.000000" height="24.000000" rx="0" ry="0" style="stroke:none;fill:#cccccc;"/>
<rect x="51.600000" y="82.000000" width="24.000000" height="24.000000" rx="0" ry="0" style="stroke:none;fill:#f44800;"/>
<text x="63.600000" y="96.000000" font-family="Arial" font-size="7" text-anchor="middle" fill="#FFFFFF">2</text>
<circle cx="53.600000" cy="84.000000" r="1"/>
<rect x="92.600000" y="79.000000" width="24.000000" height="24.000000" rx="0" ry="0" style="stroke:none;fill:#cccccc;"/>
<rect x="91.600000" y="78.000000" width="24.000000" height="24.000000" rx="0" ry="0" style="stroke:none;fill:#4B71A1;"/>
<text x="103.600000" y="92.000000" font-family="Arial" font-size="7" text-anchor="middle" fill="#FFFFFF">*</text>
<circle cx="93.600000" cy="80.000000" r="1"/>
<line x1="88.600000" y1="85.000000" x2="91.600000" y2="86.000000"  transform="rotate(0.000000,91.600000,86.000000)" style="stroke: black; stroke-width:0.25;"/>
<line x1="88.600000" y1="87.000000" x2="91.600000" y2="86.000000"  transform="rotate(0.000000,91.600000,86.000000)" style="stroke: black; stroke-width:0.25;"/>
<line x1="88.600000" y1="93.000000" x2="91.600000" y2="94.000000"  transform="rotate(0.000000,91.600000,94.000000)" style="stroke: black; stroke-width:0.25;"/>
<line x1="88.600000" y1="95.000000" x2="91.600000" y2="94.000000"  transform="rotate(0.000000,91.600000,94.000000)" style="stroke: black; stroke-width:0.25;"/>
<line x1="42.600000" y1="65.000000" x2="42.600000" y2="115.000000"  style="stroke: black; stroke-linecap:round; stroke-width:0.25; stroke-dasharray:3,3;"/>
<line x1="42.600000" y1="115.000000" x2="124.600000" y2="115.000000"  style="stroke: black; stroke-linecap:round; stroke-width:0.25; stroke-dasharray:3,3;"/>
<line x1="124.600000" y1="115.000000" x2="124.600000" y2="65.000000"  style="stroke: black; stroke-linecap:round; stroke-width:0.25; stroke-dasharray:3,3;"/>
<line x1="42.600000" y1="65.000000" x2="47.600000" y2="65.000000"  style="stroke: black; stroke-linecap:round; stroke-width:0.25; stroke-dasharray:3,3;"/>
<line x1="66.950000" y1="65.000000" x2="124.600000" y2="65.000000"  style="stroke: black; stroke-linecap:round; stroke-width:0.25; stroke-dasharray:3,3;"/>
<text x="47.600000" y="67.000000" font-family="Arial" font-size="7">hold</text>
<rect x="152.200000" y="63.000000" width="24.000000" height="24.000000" rx="0" ry="0" style="stroke:none;fill:#cccccc;"/>
<rect x="151.200000" y="62.000000" width="24.000000" height="24.000000" rx="0" ry="0" style="stroke:none;fill:#4B71A1;"/>
<text x="163.200000" y="76.000000" font-family="Arial" font-size="7" text-anchor="middle" fill="#FFFFFF">min</text>
<circle cx="153.200000" cy="64.000000" r="1"/>
<line x1="148.200000" y1="69.000000" x2="151.200000" y2="70.000000"  transform="rotate(0.000000,151.200000,70.000000)" style="stroke: black; stroke-width:0.25;"/>
<line x1="148.200000" y1="71.000000" x2="151.200000" y2="70.000000"  transform="rotate(0.000000,151.200000,70.000000)" style="stroke: black; stroke-width:0.25;"/>
<line x1="148.200000" y1="77.000000" x2="151.200000" y2="78.000000"  transform="rotate(0.000000,151.200000,78.000000)" style="stroke: black; stroke-width:0.25;"/>
<line x1="148.200000" y1="79.000000" x2="151.200000" y2="78.000000"  transform="rotate(0.000000,151.200000,78.000000)" style="stroke: black; stroke-width:0.25;"/>
<line x1="177.200000" y1="74.000000" x2="177.200000" y2="70.000000"  style="stroke:black; stroke-linecap:round; stroke-width:0.25;"/>
<line x1="177.200000" y1="70.000000" x2="181.200000" y2="70.000000"  style="stroke:black; stroke-linecap:round; stroke-width:0.25;"/>
<line x1="181.200000" y1="70.000000" x2="181.200000" y2="74.000000"  style="stroke:black; stroke-linecap:round; stroke-width:0.25;"/>
<a xlink:href="db2linear-0x9374bd0.svg">
<rect x="200.200000" y="59.000000" width="38.700000" height="24.000000" rx="0" ry="0" style="stroke:none;fill:#cccccc;"/>
<rect x="199.200000" y="58.000000" width="38.700000" height="24.000000" rx="0" ry="0" style="stroke:none;fill:#003366;"/>
</a>
<a xlink:href="db2linear-0x9374bd0.svg">
<text x="218.550000" y="72.000000" font-family="Arial" font-size="7" text-anchor="middle" fill="#FFFFFF">db2linear</text>
</a>
<circle cx="201.200000" cy="60.000000" r="1"/>
<line x1="196.200000" y1="69.000000" x2="199.200000" y2="70.000000"  transform="rotate(0.000000,199.200000,70.000000)" style="stroke: black; stroke-width:0.25;"/>
<line x1="196.200000" y1="71.000000" x2="199.200000" y2="70.000000"  transform="rotate(0.000000,199.200000,70.000000)" style="stroke: black; stroke-width:0.25;"/>
<line x1="15.000000" y1="15.000000" x2="15.000000" y2="125.000000"  style="stroke: black; stroke-linecap:round; stroke-width:0.25; stroke-dasharray:3,3;"/>
<line x1="15.000000" y1="125.000000" x2="254.900000" y2="125.000000"  style="stroke: black; stroke-linecap:round; stroke-width:0.25; stroke-dasharray:3,3;"/>
<line x1="254.900000" y1="125.000000" x2="254.900000" y2="15.000000"  style="stroke: black; stroke-linecap:round; stroke-width:0.25; stroke-dasharray:3,3;"/>
<line x1="15.000000" y1="15.000000" x2="20.000000" y2="15.000000"  style="stroke: black; stroke-linecap:round; stroke-width:0.25; stroke-dasharray:3,3;"/>
<line x1="84.500000" y1="15.000000" x2="254.900000" y2="15.000000"  style="stroke: black; stroke-linecap:round; stroke-width:0.25; stroke-dasharray:3,3;"/>
<text x="20.000000" y="17.000000" font-family="Arial" font-size="7">GainCalculator(x1)</text>
<line x1="256.900000" y1="69.000000" x2="259.900000" y2="70.000000"  transform="rotate(0.000000,259.900000,70.000000)" style="stroke: black; stroke-width:0.25;"/>
<line x1="256.900000" y1="71.000000" x2="259.900000" y2="70.000000"  transform="rotate(0.000000,259.900000,70.000000)" style="stroke: black; stroke-width:0.25;"/>
<line x1="28.000000" y1="24.000000" x2="28.000000" y2="24.000000"  style="stroke:black; stroke-linecap:round; stroke-width:0.25;"/>
<line x1="28.000000" y1="24.000000" x2="28.000000" y2="74.000000"  style="stroke:black; stroke-linecap:round; stroke-width:0.25;"/>
<line x1="28.000000" y1="74.000000" x2="28.000000" y2="74.000000"  style="stroke:black; stroke-linecap:round; stroke-width:0.25;"/>
<line x1="28.000000" y1="74.000000" x2="37.600000" y2="74.000000"  style="stroke:black; stroke-linecap:round; stroke-width:0.25;"/>
<line x1="37.600000" y1="74.000000" x2="47.600000" y2="74.000000"  style="stroke:black; stroke-linecap:round; stroke-width:0.25;"/>
<line x1="47.600000" y1="74.000000" x2="63.600000" y2="74.000000"  style="stroke:black; stroke-linecap:round; stroke-width:0.25;"/>
<line x1="63.600000" y1="74.000000" x2="79.600000" y2="74.000000"  style="stroke:black; stroke-linecap:round; stroke-width:0.25;"/>
<line x1="75.600000" y1="94.000000" x2="79.600000" y2="94.000000"  style="stroke:black; stroke-linecap:round; stroke-width:0.25;"/>
<line x1="79.600000" y1="74.000000" x2="87.600000" y2="74.000000"  style="stroke:black; stroke-linecap:round; stroke-width:0.25;"/>
<line x1="79.600000" y1="94.000000" x2="87.600000" y2="94.000000"  style="stroke:black; stroke-linecap:round; stroke-width:0.25;"/>
<line x1="87.600000" y1="74.000000" x2="87.600000" y2="86.000000"  style="stroke:black; stroke-linecap:round; stroke-width:0.25;"/>
<line x1="87.600000" y1="86.000000" x2="87.600000" y2="86.000000"  style="stroke:black; stroke-linecap:round; stroke-width:0.25;"/>
<line x1="87.600000" y1="86.000000" x2="91.600000" y2="86.000000"  style="stroke:black; stroke-linecap:round; stroke-width:0.25;"/>
<line x1="87.600000" y1="94.000000" x2="91.600000" y2="94.000000"  style="stroke:black; stroke-linecap:round; stroke-width:0.25;"/>
<line x1="103.600000" y1="24.000000" x2="28.000000" y2="24.000000"  style="stroke:black; stroke-linecap:round; stroke-width:0.25;"/>
<line x1="115.600000" y1="90.000000" x2="119.600000" y2="90.000000"  style="stroke:black; stroke-linecap:round; stroke-width:0.25;"/>
<line x1="119.600000" y1="90.000000" x2="129.600000" y2="90.000000"  style="stroke:black; stroke-linecap:round; stroke-width:0.25;"/>
<line x1="129.600000" y1="90.000000" x2="139.200000" y2="90.000000"  style="stroke:black; stroke-linecap:round; stroke-width:0.25;"/>
<line x1="135.200000" y1="44.000000" x2="139.200000" y2="44.000000"  style="stroke:black; stroke-linecap:round; stroke-width:0.25;"/>
<line x1="139.200000" y1="44.000000" x2="147.200000" y2="44.000000"  style="stroke:black; stroke-linecap:round; stroke-width:0.25;"/>
<line x1="139.200000" y1="78.000000" x2="147.200000" y2="78.000000"  style="stroke:black; stroke-linecap:round; stroke-width:0.25;"/>
<line x1="139.200000" y1="90.000000" x2="139.200000" y2="78.000000"  style="stroke:black; stroke-linecap:round; stroke-width:0.25;"/>
<line x1="139.200000" y1="90.000000" x2="139.200000" y2="90.000000"  style="stroke:black; stroke-linecap:round; stroke-width:0.25;"/>
<line x1="147.200000" y1="44.000000" x2="147.200000" y2="70.000000"  style="stroke:black; stroke-linecap:round; stroke-width:0.25;"/>
<line x1="147.200000" y1="70.000000" x2="147.200000" y2="70.000000"  style="stroke:black; stroke-linecap:round; stroke-width:0.25;"/>
<line x1="147.200000" y1="70.000000" x2="151.200000" y2="70.000000"  style="stroke:black; stroke-linecap:round; stroke-width:0.25;"/>
<line x1="147.200000" y1="78.000000" x2="151.200000" y2="78.000000"  style="stroke:black; stroke-linecap:round; stroke-width:0.25;"/>
<line x1="175.200000" y1="74.000000" x2="179.200000" y2="74.000000"  style="stroke:black; stroke-linecap:round; stroke-width:0.25;"/>
<line x1="179.200000" y1="24.000000" x2="103.600000" y2="24.000000"  style="stroke:black; stroke-linecap:round; stroke-width:0.25;"/>
<line x1="179.200000" y1="24.000000" x2="179.200000" y2="24.000000"  style="stroke:black; stroke-linecap:round; stroke-width:0.25;"/>
<line x1="179.200000" y1="70.000000" x2="179.200000" y2="24.000000"  style="stroke:black; stroke-linecap:round; stroke-width:0.25;"/>
<line x1="179.200000" y1="74.000000" x2="181.200000" y2="74.000000"  style="stroke:black; stroke-linecap:round; stroke-width:0.25;"/>
<line x1="181.200000" y1="74.000000" x2="187.200000" y2="74.000000"  style="stroke:black; stroke-linecap:round; stroke-width:0.25;"/>
<line x1="187.200000" y1="70.000000" x2="195.200000" y2="70.000000"  style="stroke:black; stroke-linecap:round; stroke-width:0.25;"/>
<line x1="187.200000" y1="74.000000" x2="187.200000" y2="70.000000"  style="stroke:black; stroke-linecap:round; stroke-width:0.25;"/>
<line x1="187.200000" y1="74.000000" x2="187.200000" y2="74.000000"  style="stroke:black; stroke-linecap:round; stroke-width:0.25;"/>
<line x1="195.200000" y1="70.000000" x2="195.200000" y2="70.000000"  style="stroke:black; stroke-linecap:round; stroke-width:0.25;"/>
<line x1="195.200000" y1="70.000000" x2="199.200000" y2="70.000000"  style="stroke:black; stroke-linecap:round; stroke-width:0.25;"/>
<line x1="237.900000" y1="70.000000" x2="241.900000" y2="70.000000"  style="stroke:black; stroke-linecap:round; stroke-width:0.25;"/>
<line x1="241.900000" y1="70.000000" x2="241.900000" y2="70.000000"  style="stroke:black; stroke-linecap:round; stroke-width:0.25;"/>
<line x1="241.900000" y1="70.000000" x2="245.900000" y2="70.000000"  style="stroke:black; stroke-linecap:round; stroke-width:0.25;"/>
<line x1="245.900000" y1="70.000000" x2="249.900000" y2="70.000000"  style="stroke:black; stroke-linecap:round; stroke-width:0.25;"/>
<line x1="249.900000" y1="70.000000" x2="259.900000" y2="70.000000"  style="stroke:black; stroke-linecap:round; stroke-width:0.25;"/>
</svg>
