<?xml version="1.0"?>
<svg xmlns="http://www.w3.org/2000/svg" xmlns:xlink="http://www.w3.org/1999/xlink" viewBox="0 0 343.200000 316.000000" width="171.600000mm" height="158.000000mm" version="1.1">
<a xlink:href="LookaheadBlock-0xa241dd8.svg">
<rect x="1.000000" y="1.000000" width="342.200000" height="315.000000" rx="0" ry="0" style="stroke:none;fill:#cccccc;"/>
<rect x="0.000000" y="0.000000" width="342.200000" height="315.000000" rx="0" ry="0" style="stroke:none;fill:#ffffff;"/>
</a>
<text x="10.000000" y="7.000000" font-family="Arial" font-size="7"></text>
<a xlink:href="currentdown-0xa240c70.svg">
<rect x="25.000000" y="25.000000" width="64.500000" height="24.000000" rx="0" ry="0" style="stroke:none;fill:#cccccc;"/>
<rect x="24.000000" y="24.000000" width="64.500000" height="24.000000" rx="0" ry="0" style="stroke:none;fill:#003366;"/>
</a>
<a xlink:href="currentdown-0xa240c70.svg">
<text x="56.250000" y="38.000000" font-family="Arial" font-size="7" text-anchor="middle" fill="#FFFFFF">currentdown(x1)</text>
</a>
<circle cx="26.000000" cy="26.000000" r="1"/>
<rect x="45.250000" y="57.000000" width="24.000000" height="24.000000" rx="0" ry="0" style="stroke:none;fill:#cccccc;"/>
<rect x="44.250000" y="56.000000" width="24.000000" height="24.000000" rx="0" ry="0" style="stroke:none;fill:#f44800;"/>
<text x="56.250000" y="70.000000" font-family="Arial" font-size="7" text-anchor="middle" fill="#FFFFFF">0</text>
<circle cx="46.250000" cy="58.000000" r="1"/>
<rect x="105.500000" y="41.000000" width="24.000000" height="24.000000" rx="0" ry="0" style="stroke:none;fill:#cccccc;"/>
<rect x="104.500000" y="40.000000" width="24.000000" height="24.000000" rx="0" ry="0" style="stroke:none;fill:#4B71A1;"/>
<text x="116.500000" y="54.000000" font-family="Arial" font-size="7" text-anchor="middle" fill="#FFFFFF">@</text>
<circle cx="106.500000" cy="42.000000" r="1"/>
<line x1="101.500000" y1="47.000000" x2="104.500000" y2="48.000000"  transform="rotate(0.000000,104.500000,48.000000)" style="stroke: black; stroke-width:0.25;"/>
<line x1="101.500000" y1="49.000000" x2="104.500000" y2="48.000000"  transform="rotate(0.000000,104.500000,48.000000)" style="stroke: black; stroke-width:0.25;"/>
<line x1="101.500000" y1="55.000000" x2="104.500000" y2="56.000000"  transform="rotate(0.000000,104.500000,56.000000)" style="stroke: black; stroke-width:0.25;"/>
<line x1="101.500000" y1="57.000000" x2="104.500000" y2="56.000000"  transform="rotate(0.000000,104.500000,56.000000)" style="stroke: black; stroke-width:0.25;"/>
<rect x="145.500000" y="37.000000" width="38.700000" height="24.000000" rx="0" ry="0" style="stroke:none;fill:#cccccc;"/>
<rect x="144.500000" y="36.000000" width="38.700000" height="24.000000" rx="0" ry="0" style="stroke:none;fill:#47945E;"/>
<text x="163.850000" y="50.000000" font-family="Arial" font-size="7" text-anchor="middle" fill="#FFFFFF">lastdown</text>
<circle cx="146.500000" cy="38.000000" r="1"/>
<rect x="200.200000" y="41.000000" width="24.000000" height="24.000000" rx="0" ry="0" style="stroke:none;fill:#cccccc;"/>
<rect x="199.200000" y="40.000000" width="24.000000" height="24.000000" rx="0" ry="0" style="stroke:none;fill:#4B71A1;"/>
<text x="211.200000" y="54.000000" font-family="Arial" font-size="7" text-anchor="middle" fill="#FFFFFF">max</text>
<circle cx="201.200000" cy="42.000000" r="1"/>
<line x1="196.200000" y1="47.000000" x2="199.200000" y2="48.000000"  transform="rotate(0.000000,199.200000,48.000000)" style="stroke: black; stroke-width:0.25;"/>
<line x1="196.200000" y1="49.000000" x2="199.200000" y2="48.000000"  transform="rotate(0.000000,199.200000,48.000000)" style="stroke: black; stroke-width:0.25;"/>
<line x1="196.200000" y1="55.000000" x2="199.200000" y2="56.000000"  transform="rotate(0.000000,199.200000,56.000000)" style="stroke: black; stroke-width:0.25;"/>
<line x1="196.200000" y1="57.000000" x2="199.200000" y2="56.000000"  transform="rotate(0.000000,199.200000,56.000000)" style="stroke: black; stroke-width:0.25;"/>
<a xlink:href="currentdown-0xa240c70.svg">
<rect x="25.000000" y="89.000000" width="64.500000" height="24.000000" rx="0" ry="0" style="stroke:none;fill:#cccccc;"/>
<rect x="24.000000" y="88.000000" width="64.500000" height="24.000000" rx="0" ry="0" style="stroke:none;fill:#003366;"/>
</a>
<a xlink:href="currentdown-0xa240c70.svg">
<text x="56.250000" y="102.000000" font-family="Arial" font-size="7" text-anchor="middle" fill="#FFFFFF">currentdown(x1)</text>
</a>
<circle cx="26.000000" cy="90.000000" r="1"/>
<rect x="45.250000" y="131.000000" width="24.000000" height="24.000000" rx="0" ry="0" style="stroke:none;fill:#cccccc;"/>
<rect x="44.250000" y="130.000000" width="24.000000" height="24.000000" rx="0" ry="0" style="stroke:none;fill:#f44800;"/>
<text x="56.250000" y="144.000000" font-family="Arial" font-size="7" text-anchor="middle" fill="#FFFFFF">1</text>
<circle cx="46.250000" cy="132.000000" r="1"/>
<line x1="35.250000" y1="121.000000" x2="35.250000" y2="163.000000"  style="stroke: black; stroke-linecap:round; stroke-width:0.25; stroke-dasharray:3,3;"/>
<line x1="35.250000" y1="163.000000" x2="77.250000" y2="163.000000"  style="stroke: black; stroke-linecap:round; stroke-width:0.25; stroke-dasharray:3,3;"/>
<line x1="77.250000" y1="163.000000" x2="77.250000" y2="121.000000"  style="stroke: black; stroke-linecap:round; stroke-width:0.25; stroke-dasharray:3,3;"/>
<line x1="35.250000" y1="121.000000" x2="40.250000" y2="121.000000"  style="stroke: black; stroke-linecap:round; stroke-width:0.25; stroke-dasharray:3,3;"/>
<line x1="69.275000" y1="121.000000" x2="77.250000" y2="121.000000"  style="stroke: black; stroke-linecap:round; stroke-width:0.25; stroke-dasharray:3,3;"/>
<text x="40.250000" y="123.000000" font-family="Arial" font-size="7">release</text>
<rect x="105.500000" y="115.000000" width="24.000000" height="24.000000" rx="0" ry="0" style="stroke:none;fill:#cccccc;"/>
<rect x="104.500000" y="114.000000" width="24.000000" height="24.000000" rx="0" ry="0" style="stroke:none;fill:#4B71A1;"/>
<text x="116.500000" y="128.000000" font-family="Arial" font-size="7" text-anchor="middle" fill="#FFFFFF">@</text>
<circle cx="106.500000" cy="116.000000" r="1"/>
<line x1="101.500000" y1="121.000000" x2="104.500000" y2="122.000000"  transform="rotate(0.000000,104.500000,122.000000)" style="stroke: black; stroke-width:0.25;"/>
<line x1="101.500000" y1="123.000000" x2="104.500000" y2="122.000000"  transform="rotate(0.000000,104.500000,122.000000)" style="stroke: black; stroke-width:0.25;"/>
<line x1="101.500000" y1="129.000000" x2="104.500000" y2="130.000000"  transform="rotate(0.000000,104.500000,130.000000)" style="stroke: black; stroke-width:0.25;"/>
<line x1="101.500000" y1="131.000000" x2="104.500000" y2="130.000000"  transform="rotate(0.000000,104.500000,130.000000)" style="stroke: black; stroke-width:0.25;"/>
<rect x="145.500000" y="111.000000" width="38.700000" height="24.000000" rx="0" ry="0" style="stroke:none;fill:#cccccc;"/>
<rect x="144.500000" y="110.000000" width="38.700000" height="24.000000" rx="0" ry="0" style="stroke:none;fill:#47945E;"/>
<text x="163.850000" y="124.000000" font-family="Arial" font-size="7" text-anchor="middle" fill="#FFFFFF">lastdown</text>
<circle cx="146.500000" cy="112.000000" r="1"/>
<rect x="200.200000" y="115.000000" width="24.000000" height="24.000000" rx="0" ry="0" style="stroke:none;fill:#cccccc;"/>
<rect x="199.200000" y="114.000000" width="24.000000" height="24.000000" rx="0" ry="0" style="stroke:none;fill:#4B71A1;"/>
<text x="211.200000" y="128.000000" font-family="Arial" font-size="7" text-anchor="middle" fill="#FFFFFF">max</text>
<circle cx="201.200000" cy="116.000000" r="1"/>
<line x1="196.200000" y1="121.000000" x2="199.200000" y2="122.000000"  transform="rotate(0.000000,199.200000,122.000000)" style="stroke: black; stroke-width:0.25;"/>
<line x1="196.200000" y1="123.000000" x2="199.200000" y2="122.000000"  transform="rotate(0.000000,199.200000,122.000000)" style="stroke: black; stroke-width:0.25;"/>
<line x1="196.200000" y1="129.000000" x2="199.200000" y2="130.000000"  transform="rotate(0.000000,199.200000,130.000000)" style="stroke: black; stroke-width:0.25;"/>
<line x1="196.200000" y1="131.000000" x2="199.200000" y2="130.000000"  transform="rotate(0.000000,199.200000,130.000000)" style="stroke: black; stroke-width:0.25;"/>
<a xlink:href="currentdown-0xa240c70.svg">
<rect x="25.000000" y="173.000000" width="64.500000" height="24.000000" rx="0" ry="0" style="stroke:none;fill:#cccccc;"/>
<rect x="24.000000" y="172.000000" width="64.500000" height="24.000000" rx="0" ry="0" style="stroke:none;fill:#003366;"/>
</a>
<a xlink:href="currentdown-0xa240c70.svg">
<text x="56.250000" y="186.000000" font-family="Arial" font-size="7" text-anchor="middle" fill="#FFFFFF">currentdown(x1)</text>
</a>
<circle cx="26.000000" cy="174.000000" r="1"/>
<rect x="45.250000" y="205.000000" width="24.000000" height="24.000000" rx="0" ry="0" style="stroke:none;fill:#cccccc;"/>
<rect x="44.250000" y="204.000000" width="24.000000" height="24.000000" rx="0" ry="0" style="stroke:none;fill:#f44800;"/>
<text x="56.250000" y="218.000000" font-family="Arial" font-size="7" text-anchor="middle" fill="#FFFFFF">2</text>
<circle cx="46.250000" cy="206.000000" r="1"/>
<rect x="105.500000" y="189.000000" width="24.000000" height="24.000000" rx="0" ry="0" style="stroke:none;fill:#cccccc;"/>
<rect x="104.500000" y="188.000000" width="24.000000" height="24.000000" rx="0" ry="0" style="stroke:none;fill:#4B71A1;"/>
<text x="116.500000" y="202.000000" font-family="Arial" font-size="7" text-anchor="middle" fill="#FFFFFF">@</text>
<circle cx="106.500000" cy="190.000000" r="1"/>
<line x1="101.500000" y1="195.000000" x2="104.500000" y2="196.000000"  transform="rotate(0.000000,104.500000,196.000000)" style="stroke: black; stroke-width:0.25;"/>
<line x1="101.500000" y1="197.000000" x2="104.500000" y2="196.000000"  transform="rotate(0.000000,104.500000,196.000000)" style="stroke: black; stroke-width:0.25;"/>
<line x1="101.500000" y1="203.000000" x2="104.500000" y2="204.000000"  transform="rotate(0.000000,104.500000,204.000000)" style="stroke: black; stroke-width:0.25;"/>
<line x1="101.500000" y1="205.000000" x2="104.500000" y2="204.000000"  transform="rotate(0.000000,104.500000,204.000000)" style="stroke: black; stroke-width:0.25;"/>
<rect x="145.500000" y="185.000000" width="38.700000" height="24.000000" rx="0" ry="0" style="stroke:none;fill:#cccccc;"/>
<rect x="144.500000" y="184.000000" width="38.700000" height="24.000000" rx="0" ry="0" style="stroke:none;fill:#47945E;"/>
<text x="163.850000" y="198.000000" font-family="Arial" font-size="7" text-anchor="middle" fill="#FFFFFF">lastdown</text>
<circle cx="146.500000" cy="186.000000" r="1"/>
<rect x="200.200000" y="189.000000" width="24.000000" height="24.000000" rx="0" ry="0" style="stroke:none;fill:#cccccc;"/>
<rect x="199.200000" y="188.000000" width="24.000000" height="24.000000" rx="0" ry="0" style="stroke:none;fill:#4B71A1;"/>
<text x="211.200000" y="202.000000" font-family="Arial" font-size="7" text-anchor="middle" fill="#FFFFFF">max</text>
<circle cx="201.200000" cy="190.000000" r="1"/>
<line x1="196.200000" y1="195.000000" x2="199.200000" y2="196.000000"  transform="rotate(0.000000,199.200000,196.000000)" style="stroke: black; stroke-width:0.25;"/>
<line x1="196.200000" y1="197.000000" x2="199.200000" y2="196.000000"  transform="rotate(0.000000,199.200000,196.000000)" style="stroke: black; stroke-width:0.25;"/>
<line x1="196.200000" y1="203.000000" x2="199.200000" y2="204.000000"  transform="rotate(0.000000,199.200000,204.000000)" style="stroke: black; stroke-width:0.25;"/>
<line x1="196.200000" y1="205.000000" x2="199.200000" y2="204.000000"  transform="rotate(0.000000,199.200000,204.000000)" style="stroke: black; stroke-width:0.25;"/>
<a xlink:href="currentdown-0xa240c70.svg">
<rect x="25.000000" y="237.000000" width="64.500000" height="24.000000" rx="0" ry="0" style="stroke:none;fill:#cccccc;"/>
<rect x="24.000000" y="236.000000" width="64.500000" height="24.000000" rx="0" ry="0" style="stroke:none;fill:#003366;"/>
</a>
<a xlink:href="currentdown-0xa240c70.svg">
<text x="56.250000" y="250.000000" font-family="Arial" font-size="7" text-anchor="middle" fill="#FFFFFF">currentdown(x1)</text>
</a>
<circle cx="26.000000" cy="238.000000" r="1"/>
<rect x="45.250000" y="269.000000" width="24.000000" height="24.000000" rx="0" ry="0" style="stroke:none;fill:#cccccc;"/>
<rect x="44.250000" y="268.000000" width="24.000000" height="24.000000" rx="0" ry="0" style="stroke:none;fill:#f44800;"/>
<text x="56.250000" y="282.000000" font-family="Arial" font-size="7" text-anchor="middle" fill="#FFFFFF">3</text>
<circle cx="46.250000" cy="270.000000" r="1"/>
<rect x="105.500000" y="253.000000" width="24.000000" height="24.000000" rx="0" ry="0" style="stroke:none;fill:#cccccc;"/>
<rect x="104.500000" y="252.000000" width="24.000000" height="24.000000" rx="0" ry="0" style="stroke:none;fill:#4B71A1;"/>
<text x="116.500000" y="266.000000" font-family="Arial" font-size="7" text-anchor="middle" fill="#FFFFFF">@</text>
<circle cx="106.500000" cy="254.000000" r="1"/>
<line x1="101.500000" y1="259.000000" x2="104.500000" y2="260.000000"  transform="rotate(0.000000,104.500000,260.000000)" style="stroke: black; stroke-width:0.25;"/>
<line x1="101.500000" y1="261.000000" x2="104.500000" y2="260.000000"  transform="rotate(0.000000,104.500000,260.000000)" style="stroke: black; stroke-width:0.25;"/>
<line x1="101.500000" y1="267.000000" x2="104.500000" y2="268.000000"  transform="rotate(0.000000,104.500000,268.000000)" style="stroke: black; stroke-width:0.25;"/>
<line x1="101.500000" y1="269.000000" x2="104.500000" y2="268.000000"  transform="rotate(0.000000,104.500000,268.000000)" style="stroke: black; stroke-width:0.25;"/>
<rect x="145.500000" y="249.000000" width="38.700000" height="24.000000" rx="0" ry="0" style="stroke:none;fill:#cccccc;"/>
<rect x="144.500000" y="248.000000" width="38.700000" height="24.000000" rx="0" ry="0" style="stroke:none;fill:#47945E;"/>
<text x="163.850000" y="262.000000" font-family="Arial" font-size="7" text-anchor="middle" fill="#FFFFFF">lastdown</text>
<circle cx="146.500000" cy="250.000000" r="1"/>
<rect x="200.200000" y="253.000000" width="24.000000" height="24.000000" rx="0" ry="0" style="stroke:none;fill:#cccccc;"/>
<rect x="199.200000" y="252.000000" width="24.000000" height="24.000000" rx="0" ry="0" style="stroke:none;fill:#4B71A1;"/>
<text x="211.200000" y="266.000000" font-family="Arial" font-size="7" text-anchor="middle" fill="#FFFFFF">max</text>
<circle cx="201.200000" cy="254.000000" r="1"/>
<line x1="196.200000" y1="259.000000" x2="199.200000" y2="260.000000"  transform="rotate(0.000000,199.200000,260.000000)" style="stroke: black; stroke-width:0.25;"/>
<line x1="196.200000" y1="261.000000" x2="199.200000" y2="260.000000"  transform="rotate(0.000000,199.200000,260.000000)" style="stroke: black; stroke-width:0.25;"/>
<line x1="196.200000" y1="267.000000" x2="199.200000" y2="268.000000"  transform="rotate(0.000000,199.200000,268.000000)" style="stroke: black; stroke-width:0.25;"/>
<line x1="196.200000" y1="269.000000" x2="199.200000" y2="268.000000"  transform="rotate(0.000000,199.200000,268.000000)" style="stroke: black; stroke-width:0.25;"/>
<rect x="248.200000" y="131.000000" width="24.000000" height="24.000000" rx="0" ry="0" style="stroke:none;fill:#cccccc;"/>
<rect x="247.200000" y="130.000000" width="24.000000" height="24.000000" rx="0" ry="0" style="stroke:none;fill:#4B71A1;"/>
<text x="259.200000" y="144.000000" font-family="Arial" font-size="7" text-anchor="middle" fill="#FFFFFF">min</text>
<circle cx="249.200000" cy="132.000000" r="1"/>
<line x1="244.200000" y1="137.000000" x2="247.200000" y2="138.000000"  transform="rotate(0.000000,247.200000,138.000000)" style="stroke: black; stroke-width:0.25;"/>
<line x1="244.200000" y1="139.000000" x2="247.200000" y2="138.000000"  transform="rotate(0.000000,247.200000,138.000000)" style="stroke: black; stroke-width:0.25;"/>
<line x1="244.200000" y1="145.000000" x2="247.200000" y2="146.000000"  transform="rotate(0.000000,247.200000,146.000000)" style="stroke: black; stroke-width:0.25;"/>
<line x1="244.200000" y1="147.000000" x2="247.200000" y2="146.000000"  transform="rotate(0.000000,247.200000,146.000000)" style="stroke: black; stroke-width:0.25;"/>
<rect x="248.200000" y="163.000000" width="24.000000" height="24.000000" rx="0" ry="0" style="stroke:none;fill:#cccccc;"/>
<rect x="247.200000" y="162.000000" width="24.000000" height="24.000000" rx="0" ry="0" style="stroke:none;fill:#4B71A1;"/>
<text x="259.200000" y="176.000000" font-family="Arial" font-size="7" text-anchor="middle" fill="#FFFFFF">min</text>
<circle cx="249.200000" cy="164.000000" r="1"/>
<line x1="244.200000" y1="169.000000" x2="247.200000" y2="170.000000"  transform="rotate(0.000000,247.200000,170.000000)" style="stroke: black; stroke-width:0.25;"/>
<line x1="244.200000" y1="171.000000" x2="247.200000" y2="170.000000"  transform="rotate(0.000000,247.200000,170.000000)" style="stroke: black; stroke-width:0.25;"/>
<line x1="244.200000" y1="177.000000" x2="247.200000" y2="178.000000"  transform="rotate(0.000000,247.200000,178.000000)" style="stroke: black; stroke-width:0.25;"/>
<line x1="244.200000" y1="179.000000" x2="247.200000" y2="178.000000"  transform="rotate(0.000000,247.200000,178.000000)" style="stroke: black; stroke-width:0.25;"/>
<rect x="288.200000" y="147.000000" width="24.000000" height="24.000000" rx="0" ry="0" style="stroke:none;fill:#cccccc;"/>
<rect x="287.200000" y="146.000000" width="24.000000" height="24.000000" rx="0" ry="0" style="stroke:none;fill:#4B71A1;"/>
<text x="299.200000" y="160.000000" font-family="Arial" font-size="7" text-anchor="middle" fill="#FFFFFF">min</text>
<circle cx="289.200000" cy="148.000000" r="1"/>
<line x1="284.200000" y1="153.000000" x2="287.200000" y2="154.000000"  transform="rotate(0.000000,287.200000,154.000000)" style="stroke: black; stroke-width:0.25;"/>
<line x1="284.200000" y1="155.000000" x2="287.200000" y2="154.000000"  transform="rotate(0.000000,287.200000,154.000000)" style="stroke: black; stroke-width:0.25;"/>
<line x1="284.200000" y1="161.000000" x2="287.200000" y2="162.000000"  transform="rotate(0.000000,287.200000,162.000000)" style="stroke: black; stroke-width:0.25;"/>
<line x1="284.200000" y1="163.000000" x2="287.200000" y2="162.000000"  transform="rotate(0.000000,287.200000,162.000000)" style="stroke: black; stroke-width:0.25;"/>
<line x1="15.000000" y1="15.000000" x2="15.000000" y2="301.000000"  style="stroke: black; stroke-linecap:round; stroke-width:0.25; stroke-dasharray:3,3;"/>
<line x1="15.000000" y1="301.000000" x2="328.200000" y2="301.000000"  style="stroke: black; stroke-linecap:round; stroke-width:0.25; stroke-dasharray:3,3;"/>
<line x1="328.200000" y1="301.000000" x2="328.200000" y2="15.000000"  style="stroke: black; stroke-linecap:round; stroke-width:0.25; stroke-dasharray:3,3;"/>
<line x1="15.000000" y1="15.000000" x2="20.000000" y2="15.000000"  style="stroke: black; stroke-linecap:round; stroke-width:0.25; stroke-dasharray:3,3;"/>
<line x1="65.150000" y1="15.000000" x2="328.200000" y2="15.000000"  style="stroke: black; stroke-linecap:round; stroke-width:0.25; stroke-dasharray:3,3;"/>
<text x="20.000000" y="17.000000" font-family="Arial" font-size="7">hold(x1)(x2)</text>
<line x1="330.200000" y1="157.000000" x2="333.200000" y2="158.000000"  transform="rotate(0.000000,333.200000,158.000000)" style="stroke: black; stroke-width:0.25;"/>
<line x1="330.200000" y1="159.000000" x2="333.200000" y2="158.000000"  transform="rotate(0.000000,333.200000,158.000000)" style="stroke: black; stroke-width:0.25;"/>
<line x1="68.250000" y1="68.000000" x2="72.250000" y2="68.000000"  style="stroke:black; stroke-linecap:round; stroke-width:0.25;"/>
<line x1="68.250000" y1="142.000000" x2="72.250000" y2="142.000000"  style="stroke:black; stroke-linecap:round; stroke-width:0.25;"/>
<line x1="68.250000" y1="216.000000" x2="72.250000" y2="216.000000"  style="stroke:black; stroke-linecap:round; stroke-width:0.25;"/>
<line x1="68.250000" y1="280.000000" x2="72.250000" y2="280.000000"  style="stroke:black; stroke-linecap:round; stroke-width:0.25;"/>
<line x1="72.250000" y1="68.000000" x2="92.500000" y2="68.000000"  style="stroke:black; stroke-linecap:round; stroke-width:0.25;"/>
<line x1="72.250000" y1="142.000000" x2="82.250000" y2="142.000000"  style="stroke:black; stroke-linecap:round; stroke-width:0.25;"/>
<line x1="72.250000" y1="216.000000" x2="92.500000" y2="216.000000"  style="stroke:black; stroke-linecap:round; stroke-width:0.25;"/>
<line x1="72.250000" y1="280.000000" x2="92.500000" y2="280.000000"  style="stroke:black; stroke-linecap:round; stroke-width:0.25;"/>
<line x1="82.250000" y1="142.000000" x2="92.500000" y2="142.000000"  style="stroke:black; stroke-linecap:round; stroke-width:0.25;"/>
<line x1="88.500000" y1="36.000000" x2="92.500000" y2="36.000000"  style="stroke:black; stroke-linecap:round; stroke-width:0.25;"/>
<line x1="88.500000" y1="100.000000" x2="92.500000" y2="100.000000"  style="stroke:black; stroke-linecap:round; stroke-width:0.25;"/>
<line x1="88.500000" y1="184.000000" x2="92.500000" y2="184.000000"  style="stroke:black; stroke-linecap:round; stroke-width:0.25;"/>
<line x1="88.500000" y1="248.000000" x2="92.500000" y2="248.000000"  style="stroke:black; stroke-linecap:round; stroke-width:0.25;"/>
<line x1="92.500000" y1="36.000000" x2="100.500000" y2="36.000000"  style="stroke:black; stroke-linecap:round; stroke-width:0.25;"/>
<line x1="92.500000" y1="56.000000" x2="100.500000" y2="56.000000"  style="stroke:black; stroke-linecap:round; stroke-width:0.25;"/>
<line x1="92.500000" y1="68.000000" x2="92.500000" y2="56.000000"  style="stroke:black; stroke-linecap:round; stroke-width:0.25;"/>
<line x1="92.500000" y1="68.000000" x2="92.500000" y2="68.000000"  style="stroke:black; stroke-linecap:round; stroke-width:0.25;"/>
<line x1="92.500000" y1="100.000000" x2="100.500000" y2="100.000000"  style="stroke:black; stroke-linecap:round; stroke-width:0.25;"/>
<line x1="92.500000" y1="130.000000" x2="100.500000" y2="130.000000"  style="stroke:black; stroke-linecap:round; stroke-width:0.25;"/>
<line x1="92.500000" y1="142.000000" x2="92.500000" y2="130.000000"  style="stroke:black; stroke-linecap:round; stroke-width:0.25;"/>
<line x1="92.500000" y1="142.000000" x2="92.500000" y2="142.000000"  style="stroke:black; stroke-linecap:round; stroke-width:0.25;"/>
<line x1="92.500000" y1="184.000000" x2="100.500000" y2="184.000000"  style="stroke:black; stroke-linecap:round; stroke-width:0.25;"/>
<line x1="92.500000" y1="204.000000" x2="100.500000" y2="204.000000"  style="stroke:black; stroke-linecap:round; stroke-width:0.25;"/>
<line x1="92.500000" y1="216.000000" x2="92.500000" y2="204.000000"  style="stroke:black; stroke-linecap:round; stroke-width:0.25;"/>
<line x1="92.500000" y1="216.000000" x2="92.500000" y2="216.000000"  style="stroke:black; stroke-linecap:round; stroke-width:0.25;"/>
<line x1="92.500000" y1="248.000000" x2="100.500000" y2="248.000000"  style="stroke:black; stroke-linecap:round; stroke-width:0.25;"/>
<line x1="92.500000" y1="268.000000" x2="100.500000" y2="268.000000"  style="stroke:black; stroke-linecap:round; stroke-width:0.25;"/>
<line x1="92.500000" y1="280.000000" x2="92.500000" y2="268.000000"  style="stroke:black; stroke-linecap:round; stroke-width:0.25;"/>
<line x1="92.500000" y1="280.000000" x2="92.500000" y2="280.000000"  style="stroke:black; stroke-linecap:round; stroke-width:0.25;"/>
<line x1="100.500000" y1="36.000000" x2="100.500000" y2="48.000000"  style="stroke:black; stroke-linecap:round; stroke-width:0.25;"/>
<line x1="100.500000" y1="48.000000" x2="100.500000" y2="48.000000"  style="stroke:black; stroke-linecap:round; stroke-width:0.25;"/>
<line x1="100.500000" y1="48.000000" x2="104.500000" y2="48.000000"  style="stroke:black; stroke-linecap:round; stroke-width:0.25;"/>
<line x1="100.500000" y1="56.000000" x2="104.500000" y2="56.000000"  style="stroke:black; stroke-linecap:round; stroke-width:0.25;"/>
<line x1="100.500000" y1="100.000000" x2="100.500000" y2="122.000000"  style="stroke:black; stroke-linecap:round; stroke-width:0.25;"/>
<line x1="100.500000" y1="122.000000" x2="100.500000" y2="122.000000"  style="stroke:black; stroke-linecap:round; stroke-width:0.25;"/>
<line x1="100.500000" y1="122.000000" x2="104.500000" y2="122.000000"  style="stroke:black; stroke-linecap:round; stroke-width:0.25;"/>
<line x1="100.500000" y1="130.000000" x2="104.500000" y2="130.000000"  style="stroke:black; stroke-linecap:round; stroke-width:0.25;"/>
<line x1="100.500000" y1="184.000000" x2="100.500000" y2="196.000000"  style="stroke:black; stroke-linecap:round; stroke-width:0.25;"/>
<line x1="100.500000" y1="196.000000" x2="100.500000" y2="196.000000"  style="stroke:black; stroke-linecap:round; stroke-width:0.25;"/>
<line x1="100.500000" y1="196.000000" x2="104.500000" y2="196.000000"  style="stroke:black; stroke-linecap:round; stroke-width:0.25;"/>
<line x1="100.500000" y1="204.000000" x2="104.500000" y2="204.000000"  style="stroke:black; stroke-linecap:round; stroke-width:0.25;"/>
<line x1="100.500000" y1="248.000000" x2="100.500000" y2="260.000000"  style="stroke:black; stroke-linecap:round; stroke-width:0.25;"/>
<line x1="100.500000" y1="260.000000" x2="100.500000" y2="260.000000"  style="stroke:black; stroke-linecap:round; stroke-width:0.25;"/>
<line x1="100.500000" y1="260.000000" x2="104.500000" y2="260.000000"  style="stroke:black; stroke-linecap:round; stroke-width:0.25;"/>
<line x1="100.500000" y1="268.000000" x2="104.500000" y2="268.000000"  style="stroke:black; stroke-linecap:round; stroke-width:0.25;"/>
<line x1="128.500000" y1="52.000000" x2="132.500000" y2="52.000000"  style="stroke:black; stroke-linecap:round; stroke-width:0.25;"/>
<line x1="128.500000" y1="126.000000" x2="132.500000" y2="126.000000"  style="stroke:black; stroke-linecap:round; stroke-width:0.25;"/>
<line x1="128.500000" y1="200.000000" x2="132.500000" y2="200.000000"  style="stroke:black; stroke-linecap:round; stroke-width:0.25;"/>
<line x1="128.500000" y1="264.000000" x2="132.500000" y2="264.000000"  style="stroke:black; stroke-linecap:round; stroke-width:0.25;"/>
<line x1="132.500000" y1="52.000000" x2="140.500000" y2="52.000000"  style="stroke:black; stroke-linecap:round; stroke-width:0.25;"/>
<line x1="132.500000" y1="126.000000" x2="140.500000" y2="126.000000"  style="stroke:black; stroke-linecap:round; stroke-width:0.25;"/>
<line x1="132.500000" y1="200.000000" x2="140.500000" y2="200.000000"  style="stroke:black; stroke-linecap:round; stroke-width:0.25;"/>
<line x1="132.500000" y1="264.000000" x2="140.500000" y2="264.000000"  style="stroke:black; stroke-linecap:round; stroke-width:0.25;"/>
<line x1="140.500000" y1="52.000000" x2="140.500000" y2="68.000000"  style="stroke:black; stroke-linecap:round; stroke-width:0.25;"/>
<line x1="140.500000" y1="68.000000" x2="140.500000" y2="68.000000"  style="stroke:black; stroke-linecap:round; stroke-width:0.25;"/>
<line x1="140.500000" y1="68.000000" x2="163.850000" y2="68.000000"  style="stroke:black; stroke-linecap:round; stroke-width:0.25;"/>
<line x1="140.500000" y1="126.000000" x2="140.500000" y2="142.000000"  style="stroke:black; stroke-linecap:round; stroke-width:0.25;"/>
<line x1="140.500000" y1="142.000000" x2="140.500000" y2="142.000000"  style="stroke:black; stroke-linecap:round; stroke-width:0.25;"/>
<line x1="140.500000" y1="142.000000" x2="163.850000" y2="142.000000"  style="stroke:black; stroke-linecap:round; stroke-width:0.25;"/>
<line x1="140.500000" y1="200.000000" x2="140.500000" y2="216.000000"  style="stroke:black; stroke-linecap:round; stroke-width:0.25;"/>
<line x1="140.500000" y1="216.000000" x2="140.500000" y2="216.000000"  style="stroke:black; stroke-linecap:round; stroke-width:0.25;"/>
<line x1="140.500000" y1="216.000000" x2="163.850000" y2="216.000000"  style="stroke:black; stroke-linecap:round; stroke-width:0.25;"/>
<line x1="140.500000" y1="264.000000" x2="140.500000" y2="280.000000"  style="stroke:black; stroke-linecap:round; stroke-width:0.25;"/>
<line x1="140.500000" y1="280.000000" x2="140.500000" y2="280.000000"  style="stroke:black; stroke-linecap:round; stroke-width:0.25;"/>
<line x1="140.500000" y1="280.000000" x2="163.850000" y2="280.000000"  style="stroke:black; stroke-linecap:round; stroke-width:0.25;"/>
<line x1="163.850000" y1="68.000000" x2="187.200000" y2="68.000000"  style="stroke:black; stroke-linecap:round; stroke-width:0.25;"/>
<line x1="163.850000" y1="142.000000" x2="187.200000" y2="142.000000"  style="stroke:black; stroke-linecap:round; stroke-width:0.25;"/>
<line x1="163.850000" y1="216.000000" x2="187.200000" y2="216.000000"  style="stroke:black; stroke-linecap:round; stroke-width:0.25;"/>
<line x1="163.850000" y1="280.000000" x2="187.200000" y2="280.000000"  style="stroke:black; stroke-linecap:round; stroke-width:0.25;"/>
<line x1="183.200000" y1="48.000000" x2="187.200000" y2="48.000000"  style="stroke:black; stroke-linecap:round; stroke-width:0.25;"/>
<line x1="183.200000" y1="122.000000" x2="187.200000" y2="122.000000"  style="stroke:black; stroke-linecap:round; stroke-width:0.25;"/>
<line x1="183.200000" y1="196.000000" x2="187.200000" y2="196.000000"  style="stroke:black; stroke-linecap:round; stroke-width:0.25;"/>
<line x1="183.200000" y1="260.000000" x2="187.200000" y2="260.000000"  style="stroke:black; stroke-linecap:round; stroke-width:0.25;"/>
<line x1="187.200000" y1="48.000000" x2="195.200000" y2="48.000000"  style="stroke:black; stroke-linecap:round; stroke-width:0.25;"/>
<line x1="187.200000" y1="56.000000" x2="195.200000" y2="56.000000"  style="stroke:black; stroke-linecap:round; stroke-width:0.25;"/>
<line x1="187.200000" y1="68.000000" x2="187.200000" y2="56.000000"  style="stroke:black; stroke-linecap:round; stroke-width:0.25;"/>
<line x1="187.200000" y1="68.000000" x2="187.200000" y2="68.000000"  style="stroke:black; stroke-linecap:round; stroke-width:0.25;"/>
<line x1="187.200000" y1="122.000000" x2="195.200000" y2="122.000000"  style="stroke:black; stroke-linecap:round; stroke-width:0.25;"/>
<line x1="187.200000" y1="130.000000" x2="195.200000" y2="130.000000"  style="stroke:black; stroke-linecap:round; stroke-width:0.25;"/>
<line x1="187.200000" y1="142.000000" x2="187.200000" y2="130.000000"  style="stroke:black; stroke-linecap:round; stroke-width:0.25;"/>
<line x1="187.200000" y1="142.000000" x2="187.200000" y2="142.000000"  style="stroke:black; stroke-linecap:round; stroke-width:0.25;"/>
<line x1="187.200000" y1="196.000000" x2="195.200000" y2="196.000000"  style="stroke:black; stroke-linecap:round; stroke-width:0.25;"/>
<line x1="187.200000" y1="204.000000" x2="195.200000" y2="204.000000"  style="stroke:black; stroke-linecap:round; stroke-width:0.25;"/>
<line x1="187.200000" y1="216.000000" x2="187.200000" y2="204.000000"  style="stroke:black; stroke-linecap:round; stroke-width:0.25;"/>
<line x1="187.200000" y1="216.000000" x2="187.200000" y2="216.000000"  style="stroke:black; stroke-linecap:round; stroke-width:0.25;"/>
<line x1="187.200000" y1="260.000000" x2="195.200000" y2="260.000000"  style="stroke:black; stroke-linecap:round; stroke-width:0.25;"/>
<line x1="187.200000" y1="268.000000" x2="195.200000" y2="268.000000"  style="stroke:black; stroke-linecap:round; stroke-width:0.25;"/>
<line x1="187.200000" y1="280.000000" x2="187.200000" y2="268.000000"  style="stroke:black; stroke-linecap:round; stroke-width:0.25;"/>
<line x1="187.200000" y1="280.000000" x2="187.200000" y2="280.000000"  style="stroke:black; stroke-linecap:round; stroke-width:0.25;"/>
<line x1="195.200000" y1="48.000000" x2="199.200000" y2="48.000000"  style="stroke:black; stroke-linecap:round; stroke-width:0.25;"/>
<line x1="195.200000" y1="56.000000" x2="199.200000" y2="56.000000"  style="stroke:black; stroke-linecap:round; stroke-width:0.25;"/>
<line x1="195.200000" y1="122.000000" x2="199.200000" y2="122.000000"  style="stroke:black; stroke-linecap:round; stroke-width:0.25;"/>
<line x1="195.200000" y1="130.000000" x2="199.200000" y2="130.000000"  style="stroke:black; stroke-linecap:round; stroke-width:0.25;"/>
<line x1="195.200000" y1="196.000000" x2="199.200000" y2="196.000000"  style="stroke:black; stroke-linecap:round; stroke-width:0.25;"/>
<line x1="195.200000" y1="204.000000" x2="199.200000" y2="204.000000"  style="stroke:black; stroke-linecap:round; stroke-width:0.25;"/>
<line x1="195.200000" y1="260.000000" x2="199.200000" y2="260.000000"  style="stroke:black; stroke-linecap:round; stroke-width:0.25;"/>
<line x1="195.200000" y1="268.000000" x2="199.200000" y2="268.000000"  style="stroke:black; stroke-linecap:round; stroke-width:0.25;"/>
<line x1="223.200000" y1="52.000000" x2="227.200000" y2="52.000000"  style="stroke:black; stroke-linecap:round; stroke-width:0.25;"/>
<line x1="223.200000" y1="126.000000" x2="227.200000" y2="126.000000"  style="stroke:black; stroke-linecap:round; stroke-width:0.25;"/>
<line x1="223.200000" y1="200.000000" x2="227.200000" y2="200.000000"  style="stroke:black; stroke-linecap:round; stroke-width:0.25;"/>
<line x1="223.200000" y1="264.000000" x2="227.200000" y2="264.000000"  style="stroke:black; stroke-linecap:round; stroke-width:0.25;"/>
<line x1="227.200000" y1="52.000000" x2="243.200000" y2="52.000000"  style="stroke:black; stroke-linecap:round; stroke-width:0.25;"/>
<line x1="227.200000" y1="126.000000" x2="235.200000" y2="126.000000"  style="stroke:black; stroke-linecap:round; stroke-width:0.25;"/>
<line x1="227.200000" y1="170.000000" x2="243.200000" y2="170.000000"  style="stroke:black; stroke-linecap:round; stroke-width:0.25;"/>
<line x1="227.200000" y1="200.000000" x2="227.200000" y2="170.000000"  style="stroke:black; stroke-linecap:round; stroke-width:0.25;"/>
<line x1="227.200000" y1="200.000000" x2="227.200000" y2="200.000000"  style="stroke:black; stroke-linecap:round; stroke-width:0.25;"/>
<line x1="227.200000" y1="264.000000" x2="235.200000" y2="264.000000"  style="stroke:black; stroke-linecap:round; stroke-width:0.25;"/>
<line x1="235.200000" y1="126.000000" x2="235.200000" y2="146.000000"  style="stroke:black; stroke-linecap:round; stroke-width:0.25;"/>
<line x1="235.200000" y1="146.000000" x2="243.200000" y2="146.000000"  style="stroke:black; stroke-linecap:round; stroke-width:0.25;"/>
<line x1="235.200000" y1="178.000000" x2="243.200000" y2="178.000000"  style="stroke:black; stroke-linecap:round; stroke-width:0.25;"/>
<line x1="235.200000" y1="264.000000" x2="235.200000" y2="178.000000"  style="stroke:black; stroke-linecap:round; stroke-width:0.25;"/>
<line x1="243.200000" y1="52.000000" x2="243.200000" y2="138.000000"  style="stroke:black; stroke-linecap:round; stroke-width:0.25;"/>
<line x1="243.200000" y1="138.000000" x2="243.200000" y2="138.000000"  style="stroke:black; stroke-linecap:round; stroke-width:0.25;"/>
<line x1="243.200000" y1="138.000000" x2="247.200000" y2="138.000000"  style="stroke:black; stroke-linecap:round; stroke-width:0.25;"/>
<line x1="243.200000" y1="146.000000" x2="247.200000" y2="146.000000"  style="stroke:black; stroke-linecap:round; stroke-width:0.25;"/>
<line x1="243.200000" y1="170.000000" x2="247.200000" y2="170.000000"  style="stroke:black; stroke-linecap:round; stroke-width:0.25;"/>
<line x1="243.200000" y1="178.000000" x2="247.200000" y2="178.000000"  style="stroke:black; stroke-linecap:round; stroke-width:0.25;"/>
<line x1="271.200000" y1="142.000000" x2="275.200000" y2="142.000000"  style="stroke:black; stroke-linecap:round; stroke-width:0.25;"/>
<line x1="271.200000" y1="174.000000" x2="275.200000" y2="174.000000"  style="stroke:black; stroke-linecap:round; stroke-width:0.25;"/>
<line x1="275.200000" y1="142.000000" x2="283.200000" y2="142.000000"  style="stroke:black; stroke-linecap:round; stroke-width:0.25;"/>
<line x1="275.200000" y1="162.000000" x2="283.200000" y2="162.000000"  style="stroke:black; stroke-linecap:round; stroke-width:0.25;"/>
<line x1="275.200000" y1="174.000000" x2="275.200000" y2="162.000000"  style="stroke:black; stroke-linecap:round; stroke-width:0.25;"/>
<line x1="275.200000" y1="174.000000" x2="275.200000" y2="174.000000"  style="stroke:black; stroke-linecap:round; stroke-width:0.25;"/>
<line x1="283.200000" y1="142.000000" x2="283.200000" y2="154.000000"  style="stroke:black; stroke-linecap:round; stroke-width:0.25;"/>
<line x1="283.200000" y1="154.000000" x2="283.200000" y2="154.000000"  style="stroke:black; stroke-linecap:round; stroke-width:0.25;"/>
<line x1="283.200000" y1="154.000000" x2="287.200000" y2="154.000000"  style="stroke:black; stroke-linecap:round; stroke-width:0.25;"/>
<line x1="283.200000" y1="162.000000" x2="287.200000" y2="162.000000"  style="stroke:black; stroke-linecap:round; stroke-width:0.25;"/>
<line x1="311.200000" y1="158.000000" x2="315.200000" y2="158.000000"  style="stroke:black; stroke-linecap:round; stroke-width:0.25;"/>
<line x1="315.200000" y1="158.000000" x2="315.200000" y2="158.000000"  style="stroke:black; stroke-linecap:round; stroke-width:0.25;"/>
<line x1="315.200000" y1="158.000000" x2="319.200000" y2="158.000000"  style="stroke:black; stroke-linecap:round; stroke-width:0.25;"/>
<line x1="319.200000" y1="158.000000" x2="323.200000" y2="158.000000"  style="stroke:black; stroke-linecap:round; stroke-width:0.25;"/>
<line x1="323.200000" y1="158.000000" x2="333.200000" y2="158.000000"  style="stroke:black; stroke-linecap:round; stroke-width:0.25;"/>
</svg>
