<?xml version="1.0"?>
<svg xmlns="http://www.w3.org/2000/svg" xmlns:xlink="http://www.w3.org/1999/xlink" viewBox="0 0 343.200000 296.000000" width="171.600000mm" height="148.000000mm" version="1.1">
<a xlink:href="minimumGainReduc-0x9a08fa0.svg">
<rect x="1.000000" y="1.000000" width="342.200000" height="295.000000" rx="0" ry="0" style="stroke:none;fill:#cccccc;"/>
<rect x="0.000000" y="0.000000" width="342.200000" height="295.000000" rx="0" ry="0" style="stroke:none;fill:#ffffff;"/>
</a>
<text x="10.000000" y="7.000000" font-family="Arial" font-size="7"></text>
<a xlink:href="currentdown-0x9a07e38.svg">
<rect x="25.000000" y="25.000000" width="64.500000" height="24.000000" rx="0" ry="0" style="stroke:none;fill:#cccccc;"/>
<rect x="24.000000" y="24.000000" width="64.500000" height="24.000000" rx="0" ry="0" style="stroke:none;fill:#003366;"/>
</a>
<a xlink:href="currentdown-0x9a07e38.svg">
<text x="56.250000" y="38.000000" font-family="Arial" font-size="7" text-anchor="middle" fill="#FFFFFF">currentdown(x1)</text>
</a>
<circle cx="26.000000" cy="26.000000" r="1"/>
<rect x="45.250000" y="57.000000" width="24.000000" height="24.000000" rx="0" ry="0" style="stroke:none;fill:#cccccc;"/>
<rect x="44.250000" y="56.000000" width="24.000000" height="24.000000" rx="0" ry="0" style="stroke:none;fill:#f44800;"/>
<text x="56.250000" y="70.000000" font-family="Arial" font-size="7" text-anchor="middle" fill="#FFFFFF">0</text>
<circle cx="46.250000" cy="58.000000" r="1"/>
<rect x="105.500000" y="41.000000" width="24.000000" height="24.000000" rx="0" ry="0" style="stroke:none;fill:#cccccc;"/>
<rect x="104.500000" y="40.000000" width="24.000000" height="24.000000" rx="0" ry="0" style="stroke:none;fill:#4B71A1;"/>
<text x="116.500000" y="54.000000" font-family="Arial" font-size="7" text-anchor="middle" fill="#FFFFFF">@</text>
<circle cx="106.500000" cy="42.000000" r="1"/>
<line x1="101.500000" y1="47.000000" x2="104.500000" y2="48.000000"  transform="rotate(0.000000,104.500000,48.000000)" style="stroke: black; stroke-width:0.25;"/>
<line x1="101.500000" y1="49.000000" x2="104.500000" y2="48.000000"  transform="rotate(0.000000,104.500000,48.000000)" style="stroke: black; stroke-width:0.25;"/>
<line x1="101.500000" y1="55.000000" x2="104.500000" y2="56.000000"  transform="rotate(0.000000,104.500000,56.000000)" style="stroke: black; stroke-width:0.25;"/>
<line x1="101.500000" y1="57.000000" x2="104.500000" y2="56.000000"  transform="rotate(0.000000,104.500000,56.000000)" style="stroke: black; stroke-width:0.25;"/>
<rect x="145.500000" y="37.000000" width="38.700000" height="24.000000" rx="0" ry="0" style="stroke:none;fill:#cccccc;"/>
<rect x="144.500000" y="36.000000" width="38.700000" height="24.000000" rx="0" ry="0" style="stroke:none;fill:#47945E;"/>
<text x="163.850000" y="50.000000" font-family="Arial" font-size="7" text-anchor="middle" fill="#FFFFFF">lastdown</text>
<circle cx="146.500000" cy="38.000000" r="1"/>
<rect x="200.200000" y="41.000000" width="24.000000" height="24.000000" rx="0" ry="0" style="stroke:none;fill:#cccccc;"/>
<rect x="199.200000" y="40.000000" width="24.000000" height="24.000000" rx="0" ry="0" style="stroke:none;fill:#4B71A1;"/>
<text x="211.200000" y="54.000000" font-family="Arial" font-size="7" text-anchor="middle" fill="#FFFFFF">max</text>
<circle cx="201.200000" cy="42.000000" r="1"/>
<line x1="196.200000" y1="47.000000" x2="199.200000" y2="48.000000"  transform="rotate(0.000000,199.200000,48.000000)" style="stroke: black; stroke-width:0.25;"/>
<line x1="196.200000" y1="49.000000" x2="199.200000" y2="48.000000"  transform="rotate(0.000000,199.200000,48.000000)" style="stroke: black; stroke-width:0.25;"/>
<line x1="196.200000" y1="55.000000" x2="199.200000" y2="56.000000"  transform="rotate(0.000000,199.200000,56.000000)" style="stroke: black; stroke-width:0.25;"/>
<line x1="196.200000" y1="57.000000" x2="199.200000" y2="56.000000"  transform="rotate(0.000000,199.200000,56.000000)" style="stroke: black; stroke-width:0.25;"/>
<a xlink:href="currentdown-0x9a07e38.svg">
<rect x="25.000000" y="89.000000" width="64.500000" height="24.000000" rx="0" ry="0" style="stroke:none;fill:#cccccc;"/>
<rect x="24.000000" y="88.000000" width="64.500000" height="24.000000" rx="0" ry="0" style="stroke:none;fill:#003366;"/>
</a>
<a xlink:href="currentdown-0x9a07e38.svg">
<text x="56.250000" y="102.000000" font-family="Arial" font-size="7" text-anchor="middle" fill="#FFFFFF">currentdown(x1)</text>
</a>
<circle cx="26.000000" cy="90.000000" r="1"/>
<rect x="45.250000" y="121.000000" width="24.000000" height="24.000000" rx="0" ry="0" style="stroke:none;fill:#cccccc;"/>
<rect x="44.250000" y="120.000000" width="24.000000" height="24.000000" rx="0" ry="0" style="stroke:none;fill:#f44800;"/>
<text x="56.250000" y="134.000000" font-family="Arial" font-size="7" text-anchor="middle" fill="#FFFFFF">1</text>
<circle cx="46.250000" cy="122.000000" r="1"/>
<rect x="105.500000" y="105.000000" width="24.000000" height="24.000000" rx="0" ry="0" style="stroke:none;fill:#cccccc;"/>
<rect x="104.500000" y="104.000000" width="24.000000" height="24.000000" rx="0" ry="0" style="stroke:none;fill:#4B71A1;"/>
<text x="116.500000" y="118.000000" font-family="Arial" font-size="7" text-anchor="middle" fill="#FFFFFF">@</text>
<circle cx="106.500000" cy="106.000000" r="1"/>
<line x1="101.500000" y1="111.000000" x2="104.500000" y2="112.000000"  transform="rotate(0.000000,104.500000,112.000000)" style="stroke: black; stroke-width:0.25;"/>
<line x1="101.500000" y1="113.000000" x2="104.500000" y2="112.000000"  transform="rotate(0.000000,104.500000,112.000000)" style="stroke: black; stroke-width:0.25;"/>
<line x1="101.500000" y1="119.000000" x2="104.500000" y2="120.000000"  transform="rotate(0.000000,104.500000,120.000000)" style="stroke: black; stroke-width:0.25;"/>
<line x1="101.500000" y1="121.000000" x2="104.500000" y2="120.000000"  transform="rotate(0.000000,104.500000,120.000000)" style="stroke: black; stroke-width:0.25;"/>
<rect x="145.500000" y="101.000000" width="38.700000" height="24.000000" rx="0" ry="0" style="stroke:none;fill:#cccccc;"/>
<rect x="144.500000" y="100.000000" width="38.700000" height="24.000000" rx="0" ry="0" style="stroke:none;fill:#47945E;"/>
<text x="163.850000" y="114.000000" font-family="Arial" font-size="7" text-anchor="middle" fill="#FFFFFF">lastdown</text>
<circle cx="146.500000" cy="102.000000" r="1"/>
<rect x="200.200000" y="105.000000" width="24.000000" height="24.000000" rx="0" ry="0" style="stroke:none;fill:#cccccc;"/>
<rect x="199.200000" y="104.000000" width="24.000000" height="24.000000" rx="0" ry="0" style="stroke:none;fill:#4B71A1;"/>
<text x="211.200000" y="118.000000" font-family="Arial" font-size="7" text-anchor="middle" fill="#FFFFFF">max</text>
<circle cx="201.200000" cy="106.000000" r="1"/>
<line x1="196.200000" y1="111.000000" x2="199.200000" y2="112.000000"  transform="rotate(0.000000,199.200000,112.000000)" style="stroke: black; stroke-width:0.25;"/>
<line x1="196.200000" y1="113.000000" x2="199.200000" y2="112.000000"  transform="rotate(0.000000,199.200000,112.000000)" style="stroke: black; stroke-width:0.25;"/>
<line x1="196.200000" y1="119.000000" x2="199.200000" y2="120.000000"  transform="rotate(0.000000,199.200000,120.000000)" style="stroke: black; stroke-width:0.25;"/>
<line x1="196.200000" y1="121.000000" x2="199.200000" y2="120.000000"  transform="rotate(0.000000,199.200000,120.000000)" style="stroke: black; stroke-width:0.25;"/>
<a xlink:href="currentdown-0x9a07e38.svg">
<rect x="25.000000" y="153.000000" width="64.500000" height="24.000000" rx="0" ry="0" style="stroke:none;fill:#cccccc;"/>
<rect x="24.000000" y="152.000000" width="64.500000" height="24.000000" rx="0" ry="0" style="stroke:none;fill:#003366;"/>
</a>
<a xlink:href="currentdown-0x9a07e38.svg">
<text x="56.250000" y="166.000000" font-family="Arial" font-size="7" text-anchor="middle" fill="#FFFFFF">currentdown(x1)</text>
</a>
<circle cx="26.000000" cy="154.000000" r="1"/>
<rect x="45.250000" y="185.000000" width="24.000000" height="24.000000" rx="0" ry="0" style="stroke:none;fill:#cccccc;"/>
<rect x="44.250000" y="184.000000" width="24.000000" height="24.000000" rx="0" ry="0" style="stroke:none;fill:#f44800;"/>
<text x="56.250000" y="198.000000" font-family="Arial" font-size="7" text-anchor="middle" fill="#FFFFFF">2</text>
<circle cx="46.250000" cy="186.000000" r="1"/>
<rect x="105.500000" y="169.000000" width="24.000000" height="24.000000" rx="0" ry="0" style="stroke:none;fill:#cccccc;"/>
<rect x="104.500000" y="168.000000" width="24.000000" height="24.000000" rx="0" ry="0" style="stroke:none;fill:#4B71A1;"/>
<text x="116.500000" y="182.000000" font-family="Arial" font-size="7" text-anchor="middle" fill="#FFFFFF">@</text>
<circle cx="106.500000" cy="170.000000" r="1"/>
<line x1="101.500000" y1="175.000000" x2="104.500000" y2="176.000000"  transform="rotate(0.000000,104.500000,176.000000)" style="stroke: black; stroke-width:0.25;"/>
<line x1="101.500000" y1="177.000000" x2="104.500000" y2="176.000000"  transform="rotate(0.000000,104.500000,176.000000)" style="stroke: black; stroke-width:0.25;"/>
<line x1="101.500000" y1="183.000000" x2="104.500000" y2="184.000000"  transform="rotate(0.000000,104.500000,184.000000)" style="stroke: black; stroke-width:0.25;"/>
<line x1="101.500000" y1="185.000000" x2="104.500000" y2="184.000000"  transform="rotate(0.000000,104.500000,184.000000)" style="stroke: black; stroke-width:0.25;"/>
<rect x="145.500000" y="165.000000" width="38.700000" height="24.000000" rx="0" ry="0" style="stroke:none;fill:#cccccc;"/>
<rect x="144.500000" y="164.000000" width="38.700000" height="24.000000" rx="0" ry="0" style="stroke:none;fill:#47945E;"/>
<text x="163.850000" y="178.000000" font-family="Arial" font-size="7" text-anchor="middle" fill="#FFFFFF">lastdown</text>
<circle cx="146.500000" cy="166.000000" r="1"/>
<rect x="200.200000" y="169.000000" width="24.000000" height="24.000000" rx="0" ry="0" style="stroke:none;fill:#cccccc;"/>
<rect x="199.200000" y="168.000000" width="24.000000" height="24.000000" rx="0" ry="0" style="stroke:none;fill:#4B71A1;"/>
<text x="211.200000" y="182.000000" font-family="Arial" font-size="7" text-anchor="middle" fill="#FFFFFF">max</text>
<circle cx="201.200000" cy="170.000000" r="1"/>
<line x1="196.200000" y1="175.000000" x2="199.200000" y2="176.000000"  transform="rotate(0.000000,199.200000,176.000000)" style="stroke: black; stroke-width:0.25;"/>
<line x1="196.200000" y1="177.000000" x2="199.200000" y2="176.000000"  transform="rotate(0.000000,199.200000,176.000000)" style="stroke: black; stroke-width:0.25;"/>
<line x1="196.200000" y1="183.000000" x2="199.200000" y2="184.000000"  transform="rotate(0.000000,199.200000,184.000000)" style="stroke: black; stroke-width:0.25;"/>
<line x1="196.200000" y1="185.000000" x2="199.200000" y2="184.000000"  transform="rotate(0.000000,199.200000,184.000000)" style="stroke: black; stroke-width:0.25;"/>
<a xlink:href="currentdown-0x9a07e38.svg">
<rect x="25.000000" y="217.000000" width="64.500000" height="24.000000" rx="0" ry="0" style="stroke:none;fill:#cccccc;"/>
<rect x="24.000000" y="216.000000" width="64.500000" height="24.000000" rx="0" ry="0" style="stroke:none;fill:#003366;"/>
</a>
<a xlink:href="currentdown-0x9a07e38.svg">
<text x="56.250000" y="230.000000" font-family="Arial" font-size="7" text-anchor="middle" fill="#FFFFFF">currentdown(x1)</text>
</a>
<circle cx="26.000000" cy="218.000000" r="1"/>
<rect x="45.250000" y="249.000000" width="24.000000" height="24.000000" rx="0" ry="0" style="stroke:none;fill:#cccccc;"/>
<rect x="44.250000" y="248.000000" width="24.000000" height="24.000000" rx="0" ry="0" style="stroke:none;fill:#f44800;"/>
<text x="56.250000" y="262.000000" font-family="Arial" font-size="7" text-anchor="middle" fill="#FFFFFF">3</text>
<circle cx="46.250000" cy="250.000000" r="1"/>
<rect x="105.500000" y="233.000000" width="24.000000" height="24.000000" rx="0" ry="0" style="stroke:none;fill:#cccccc;"/>
<rect x="104.500000" y="232.000000" width="24.000000" height="24.000000" rx="0" ry="0" style="stroke:none;fill:#4B71A1;"/>
<text x="116.500000" y="246.000000" font-family="Arial" font-size="7" text-anchor="middle" fill="#FFFFFF">@</text>
<circle cx="106.500000" cy="234.000000" r="1"/>
<line x1="101.500000" y1="239.000000" x2="104.500000" y2="240.000000"  transform="rotate(0.000000,104.500000,240.000000)" style="stroke: black; stroke-width:0.25;"/>
<line x1="101.500000" y1="241.000000" x2="104.500000" y2="240.000000"  transform="rotate(0.000000,104.500000,240.000000)" style="stroke: black; stroke-width:0.25;"/>
<line x1="101.500000" y1="247.000000" x2="104.500000" y2="248.000000"  transform="rotate(0.000000,104.500000,248.000000)" style="stroke: black; stroke-width:0.25;"/>
<line x1="101.500000" y1="249.000000" x2="104.500000" y2="248.000000"  transform="rotate(0.000000,104.500000,248.000000)" style="stroke: black; stroke-width:0.25;"/>
<rect x="145.500000" y="229.000000" width="38.700000" height="24.000000" rx="0" ry="0" style="stroke:none;fill:#cccccc;"/>
<rect x="144.500000" y="228.000000" width="38.700000" height="24.000000" rx="0" ry="0" style="stroke:none;fill:#47945E;"/>
<text x="163.850000" y="242.000000" font-family="Arial" font-size="7" text-anchor="middle" fill="#FFFFFF">lastdown</text>
<circle cx="146.500000" cy="230.000000" r="1"/>
<rect x="200.200000" y="233.000000" width="24.000000" height="24.000000" rx="0" ry="0" style="stroke:none;fill:#cccccc;"/>
<rect x="199.200000" y="232.000000" width="24.000000" height="24.000000" rx="0" ry="0" style="stroke:none;fill:#4B71A1;"/>
<text x="211.200000" y="246.000000" font-family="Arial" font-size="7" text-anchor="middle" fill="#FFFFFF">max</text>
<circle cx="201.200000" cy="234.000000" r="1"/>
<line x1="196.200000" y1="239.000000" x2="199.200000" y2="240.000000"  transform="rotate(0.000000,199.200000,240.000000)" style="stroke: black; stroke-width:0.25;"/>
<line x1="196.200000" y1="241.000000" x2="199.200000" y2="240.000000"  transform="rotate(0.000000,199.200000,240.000000)" style="stroke: black; stroke-width:0.25;"/>
<line x1="196.200000" y1="247.000000" x2="199.200000" y2="248.000000"  transform="rotate(0.000000,199.200000,248.000000)" style="stroke: black; stroke-width:0.25;"/>
<line x1="196.200000" y1="249.000000" x2="199.200000" y2="248.000000"  transform="rotate(0.000000,199.200000,248.000000)" style="stroke: black; stroke-width:0.25;"/>
<rect x="248.200000" y="121.000000" width="24.000000" height="24.000000" rx="0" ry="0" style="stroke:none;fill:#cccccc;"/>
<rect x="247.200000" y="120.000000" width="24.000000" height="24.000000" rx="0" ry="0" style="stroke:none;fill:#4B71A1;"/>
<text x="259.200000" y="134.000000" font-family="Arial" font-size="7" text-anchor="middle" fill="#FFFFFF">min</text>
<circle cx="249.200000" cy="122.000000" r="1"/>
<line x1="244.200000" y1="127.000000" x2="247.200000" y2="128.000000"  transform="rotate(0.000000,247.200000,128.000000)" style="stroke: black; stroke-width:0.25;"/>
<line x1="244.200000" y1="129.000000" x2="247.200000" y2="128.000000"  transform="rotate(0.000000,247.200000,128.000000)" style="stroke: black; stroke-width:0.25;"/>
<line x1="244.200000" y1="135.000000" x2="247.200000" y2="136.000000"  transform="rotate(0.000000,247.200000,136.000000)" style="stroke: black; stroke-width:0.25;"/>
<line x1="244.200000" y1="137.000000" x2="247.200000" y2="136.000000"  transform="rotate(0.000000,247.200000,136.000000)" style="stroke: black; stroke-width:0.25;"/>
<rect x="248.200000" y="153.000000" width="24.000000" height="24.000000" rx="0" ry="0" style="stroke:none;fill:#cccccc;"/>
<rect x="247.200000" y="152.000000" width="24.000000" height="24.000000" rx="0" ry="0" style="stroke:none;fill:#4B71A1;"/>
<text x="259.200000" y="166.000000" font-family="Arial" font-size="7" text-anchor="middle" fill="#FFFFFF">min</text>
<circle cx="249.200000" cy="154.000000" r="1"/>
<line x1="244.200000" y1="159.000000" x2="247.200000" y2="160.000000"  transform="rotate(0.000000,247.200000,160.000000)" style="stroke: black; stroke-width:0.25;"/>
<line x1="244.200000" y1="161.000000" x2="247.200000" y2="160.000000"  transform="rotate(0.000000,247.200000,160.000000)" style="stroke: black; stroke-width:0.25;"/>
<line x1="244.200000" y1="167.000000" x2="247.200000" y2="168.000000"  transform="rotate(0.000000,247.200000,168.000000)" style="stroke: black; stroke-width:0.25;"/>
<line x1="244.200000" y1="169.000000" x2="247.200000" y2="168.000000"  transform="rotate(0.000000,247.200000,168.000000)" style="stroke: black; stroke-width:0.25;"/>
<rect x="288.200000" y="137.000000" width="24.000000" height="24.000000" rx="0" ry="0" style="stroke:none;fill:#cccccc;"/>
<rect x="287.200000" y="136.000000" width="24.000000" height="24.000000" rx="0" ry="0" style="stroke:none;fill:#4B71A1;"/>
<text x="299.200000" y="150.000000" font-family="Arial" font-size="7" text-anchor="middle" fill="#FFFFFF">min</text>
<circle cx="289.200000" cy="138.000000" r="1"/>
<line x1="284.200000" y1="143.000000" x2="287.200000" y2="144.000000"  transform="rotate(0.000000,287.200000,144.000000)" style="stroke: black; stroke-width:0.25;"/>
<line x1="284.200000" y1="145.000000" x2="287.200000" y2="144.000000"  transform="rotate(0.000000,287.200000,144.000000)" style="stroke: black; stroke-width:0.25;"/>
<line x1="284.200000" y1="151.000000" x2="287.200000" y2="152.000000"  transform="rotate(0.000000,287.200000,152.000000)" style="stroke: black; stroke-width:0.25;"/>
<line x1="284.200000" y1="153.000000" x2="287.200000" y2="152.000000"  transform="rotate(0.000000,287.200000,152.000000)" style="stroke: black; stroke-width:0.25;"/>
<line x1="15.000000" y1="15.000000" x2="15.000000" y2="281.000000"  style="stroke: black; stroke-linecap:round; stroke-width:0.25; stroke-dasharray:3,3;"/>
<line x1="15.000000" y1="281.000000" x2="328.200000" y2="281.000000"  style="stroke: black; stroke-linecap:round; stroke-width:0.25; stroke-dasharray:3,3;"/>
<line x1="328.200000" y1="281.000000" x2="328.200000" y2="15.000000"  style="stroke: black; stroke-linecap:round; stroke-width:0.25; stroke-dasharray:3,3;"/>
<line x1="15.000000" y1="15.000000" x2="20.000000" y2="15.000000"  style="stroke: black; stroke-linecap:round; stroke-width:0.25; stroke-dasharray:3,3;"/>
<line x1="65.150000" y1="15.000000" x2="328.200000" y2="15.000000"  style="stroke: black; stroke-linecap:round; stroke-width:0.25; stroke-dasharray:3,3;"/>
<text x="20.000000" y="17.000000" font-family="Arial" font-size="7">hold(x1)(x2)</text>
<line x1="330.200000" y1="147.000000" x2="333.200000" y2="148.000000"  transform="rotate(0.000000,333.200000,148.000000)" style="stroke: black; stroke-width:0.25;"/>
<line x1="330.200000" y1="149.000000" x2="333.200000" y2="148.000000"  transform="rotate(0.000000,333.200000,148.000000)" style="stroke: black; stroke-width:0.25;"/>
<line x1="68.250000" y1="68.000000" x2="72.250000" y2="68.000000"  style="stroke:black; stroke-linecap:round; stroke-width:0.25;"/>
<line x1="68.250000" y1="132.000000" x2="72.250000" y2="132.000000"  style="stroke:black; stroke-linecap:round; stroke-width:0.25;"/>
<line x1="68.250000" y1="196.000000" x2="72.250000" y2="196.000000"  style="stroke:black; stroke-linecap:round; stroke-width:0.25;"/>
<line x1="68.250000" y1="260.000000" x2="72.250000" y2="260.000000"  style="stroke:black; stroke-linecap:round; stroke-width:0.25;"/>
<line x1="72.250000" y1="68.000000" x2="92.500000" y2="68.000000"  style="stroke:black; stroke-linecap:round; stroke-width:0.25;"/>
<line x1="72.250000" y1="132.000000" x2="92.500000" y2="132.000000"  style="stroke:black; stroke-linecap:round; stroke-width:0.25;"/>
<line x1="72.250000" y1="196.000000" x2="92.500000" y2="196.000000"  style="stroke:black; stroke-linecap:round; stroke-width:0.25;"/>
<line x1="72.250000" y1="260.000000" x2="92.500000" y2="260.000000"  style="stroke:black; stroke-linecap:round; stroke-width:0.25;"/>
<line x1="88.500000" y1="36.000000" x2="92.500000" y2="36.000000"  style="stroke:black; stroke-linecap:round; stroke-width:0.25;"/>
<line x1="88.500000" y1="100.000000" x2="92.500000" y2="100.000000"  style="stroke:black; stroke-linecap:round; stroke-width:0.25;"/>
<line x1="88.500000" y1="164.000000" x2="92.500000" y2="164.000000"  style="stroke:black; stroke-linecap:round; stroke-width:0.25;"/>
<line x1="88.500000" y1="228.000000" x2="92.500000" y2="228.000000"  style="stroke:black; stroke-linecap:round; stroke-width:0.25;"/>
<line x1="92.500000" y1="36.000000" x2="100.500000" y2="36.000000"  style="stroke:black; stroke-linecap:round; stroke-width:0.25;"/>
<line x1="92.500000" y1="56.000000" x2="100.500000" y2="56.000000"  style="stroke:black; stroke-linecap:round; stroke-width:0.25;"/>
<line x1="92.500000" y1="68.000000" x2="92.500000" y2="56.000000"  style="stroke:black; stroke-linecap:round; stroke-width:0.25;"/>
<line x1="92.500000" y1="68.000000" x2="92.500000" y2="68.000000"  style="stroke:black; stroke-linecap:round; stroke-width:0.25;"/>
<line x1="92.500000" y1="100.000000" x2="100.500000" y2="100.000000"  style="stroke:black; stroke-linecap:round; stroke-width:0.25;"/>
<line x1="92.500000" y1="120.000000" x2="100.500000" y2="120.000000"  style="stroke:black; stroke-linecap:round; stroke-width:0.25;"/>
<line x1="92.500000" y1="132.000000" x2="92.500000" y2="120.000000"  style="stroke:black; stroke-linecap:round; stroke-width:0.25;"/>
<line x1="92.500000" y1="132.000000" x2="92.500000" y2="132.000000"  style="stroke:black; stroke-linecap:round; stroke-width:0.25;"/>
<line x1="92.500000" y1="164.000000" x2="100.500000" y2="164.000000"  style="stroke:black; stroke-linecap:round; stroke-width:0.25;"/>
<line x1="92.500000" y1="184.000000" x2="100.500000" y2="184.000000"  style="stroke:black; stroke-linecap:round; stroke-width:0.25;"/>
<line x1="92.500000" y1="196.000000" x2="92.500000" y2="184.000000"  style="stroke:black; stroke-linecap:round; stroke-width:0.25;"/>
<line x1="92.500000" y1="196.000000" x2="92.500000" y2="196.000000"  style="stroke:black; stroke-linecap:round; stroke-width:0.25;"/>
<line x1="92.500000" y1="228.000000" x2="100.500000" y2="228.000000"  style="stroke:black; stroke-linecap:round; stroke-width:0.25;"/>
<line x1="92.500000" y1="248.000000" x2="100.500000" y2="248.000000"  style="stroke:black; stroke-linecap:round; stroke-width:0.25;"/>
<line x1="92.500000" y1="260.000000" x2="92.500000" y2="248.000000"  style="stroke:black; stroke-linecap:round; stroke-width:0.25;"/>
<line x1="92.500000" y1="260.000000" x2="92.500000" y2="260.000000"  style="stroke:black; stroke-linecap:round; stroke-width:0.25;"/>
<line x1="100.500000" y1="36.000000" x2="100.500000" y2="48.000000"  style="stroke:black; stroke-linecap:round; stroke-width:0.25;"/>
<line x1="100.500000" y1="48.000000" x2="100.500000" y2="48.000000"  style="stroke:black; stroke-linecap:round; stroke-width:0.25;"/>
<line x1="100.500000" y1="48.000000" x2="104.500000" y2="48.000000"  style="stroke:black; stroke-linecap:round; stroke-width:0.25;"/>
<line x1="100.500000" y1="56.000000" x2="104.500000" y2="56.000000"  style="stroke:black; stroke-linecap:round; stroke-width:0.25;"/>
<line x1="100.500000" y1="100.000000" x2="100.500000" y2="112.000000"  style="stroke:black; stroke-linecap:round; stroke-width:0.25;"/>
<line x1="100.500000" y1="112.000000" x2="100.500000" y2="112.000000"  style="stroke:black; stroke-linecap:round; stroke-width:0.25;"/>
<line x1="100.500000" y1="112.000000" x2="104.500000" y2="112.000000"  style="stroke:black; stroke-linecap:round; stroke-width:0.25;"/>
<line x1="100.500000" y1="120.000000" x2="104.500000" y2="120.000000"  style="stroke:black; stroke-linecap:round; stroke-width:0.25;"/>
<line x1="100.500000" y1="164.000000" x2="100.500000" y2="176.000000"  style="stroke:black; stroke-linecap:round; stroke-width:0.25;"/>
<line x1="100.500000" y1="176.000000" x2="100.500000" y2="176.000000"  style="stroke:black; stroke-linecap:round; stroke-width:0.25;"/>
<line x1="100.500000" y1="176.000000" x2="104.500000" y2="176.000000"  style="stroke:black; stroke-linecap:round; stroke-width:0.25;"/>
<line x1="100.500000" y1="184.000000" x2="104.500000" y2="184.000000"  style="stroke:black; stroke-linecap:round; stroke-width:0.25;"/>
<line x1="100.500000" y1="228.000000" x2="100.500000" y2="240.000000"  style="stroke:black; stroke-linecap:round; stroke-width:0.25;"/>
<line x1="100.500000" y1="240.000000" x2="100.500000" y2="240.000000"  style="stroke:black; stroke-linecap:round; stroke-width:0.25;"/>
<line x1="100.500000" y1="240.000000" x2="104.500000" y2="240.000000"  style="stroke:black; stroke-linecap:round; stroke-width:0.25;"/>
<line x1="100.500000" y1="248.000000" x2="104.500000" y2="248.000000"  style="stroke:black; stroke-linecap:round; stroke-width:0.25;"/>
<line x1="128.500000" y1="52.000000" x2="132.500000" y2="52.000000"  style="stroke:black; stroke-linecap:round; stroke-width:0.25;"/>
<line x1="128.500000" y1="116.000000" x2="132.500000" y2="116.000000"  style="stroke:black; stroke-linecap:round; stroke-width:0.25;"/>
<line x1="128.500000" y1="180.000000" x2="132.500000" y2="180.000000"  style="stroke:black; stroke-linecap:round; stroke-width:0.25;"/>
<line x1="128.500000" y1="244.000000" x2="132.500000" y2="244.000000"  style="stroke:black; stroke-linecap:round; stroke-width:0.25;"/>
<line x1="132.500000" y1="52.000000" x2="140.500000" y2="52.000000"  style="stroke:black; stroke-linecap:round; stroke-width:0.25;"/>
<line x1="132.500000" y1="116.000000" x2="140.500000" y2="116.000000"  style="stroke:black; stroke-linecap:round; stroke-width:0.25;"/>
<line x1="132.500000" y1="180.000000" x2="140.500000" y2="180.000000"  style="stroke:black; stroke-linecap:round; stroke-width:0.25;"/>
<line x1="132.500000" y1="244.000000" x2="140.500000" y2="244.000000"  style="stroke:black; stroke-linecap:round; stroke-width:0.25;"/>
<line x1="140.500000" y1="52.000000" x2="140.500000" y2="68.000000"  style="stroke:black; stroke-linecap:round; stroke-width:0.25;"/>
<line x1="140.500000" y1="68.000000" x2="140.500000" y2="68.000000"  style="stroke:black; stroke-linecap:round; stroke-width:0.25;"/>
<line x1="140.500000" y1="68.000000" x2="163.850000" y2="68.000000"  style="stroke:black; stroke-linecap:round; stroke-width:0.25;"/>
<line x1="140.500000" y1="116.000000" x2="140.500000" y2="132.000000"  style="stroke:black; stroke-linecap:round; stroke-width:0.25;"/>
<line x1="140.500000" y1="132.000000" x2="140.500000" y2="132.000000"  style="stroke:black; stroke-linecap:round; stroke-width:0.25;"/>
<line x1="140.500000" y1="132.000000" x2="163.850000" y2="132.000000"  style="stroke:black; stroke-linecap:round; stroke-width:0.25;"/>
<line x1="140.500000" y1="180.000000" x2="140.500000" y2="196.000000"  style="stroke:black; stroke-linecap:round; stroke-width:0.25;"/>
<line x1="140.500000" y1="196.000000" x2="140.500000" y2="196.000000"  style="stroke:black; stroke-linecap:round; stroke-width:0.25;"/>
<line x1="140.500000" y1="196.000000" x2="163.850000" y2="196.000000"  style="stroke:black; stroke-linecap:round; stroke-width:0.25;"/>
<line x1="140.500000" y1="244.000000" x2="140.500000" y2="260.000000"  style="stroke:black; stroke-linecap:round; stroke-width:0.25;"/>
<line x1="140.500000" y1="260.000000" x2="140.500000" y2="260.000000"  style="stroke:black; stroke-linecap:round; stroke-width:0.25;"/>
<line x1="140.500000" y1="260.000000" x2="163.850000" y2="260.000000"  style="stroke:black; stroke-linecap:round; stroke-width:0.25;"/>
<line x1="163.850000" y1="68.000000" x2="187.200000" y2="68.000000"  style="stroke:black; stroke-linecap:round; stroke-width:0.25;"/>
<line x1="163.850000" y1="132.000000" x2="187.200000" y2="132.000000"  style="stroke:black; stroke-linecap:round; stroke-width:0.25;"/>
<line x1="163.850000" y1="196.000000" x2="187.200000" y2="196.000000"  style="stroke:black; stroke-linecap:round; stroke-width:0.25;"/>
<line x1="163.850000" y1="260.000000" x2="187.200000" y2="260.000000"  style="stroke:black; stroke-linecap:round; stroke-width:0.25;"/>
<line x1="183.200000" y1="48.000000" x2="187.200000" y2="48.000000"  style="stroke:black; stroke-linecap:round; stroke-width:0.25;"/>
<line x1="183.200000" y1="112.000000" x2="187.200000" y2="112.000000"  style="stroke:black; stroke-linecap:round; stroke-width:0.25;"/>
<line x1="183.200000" y1="176.000000" x2="187.200000" y2="176.000000"  style="stroke:black; stroke-linecap:round; stroke-width:0.25;"/>
<line x1="183.200000" y1="240.000000" x2="187.200000" y2="240.000000"  style="stroke:black; stroke-linecap:round; stroke-width:0.25;"/>
<line x1="187.200000" y1="48.000000" x2="195.200000" y2="48.000000"  style="stroke:black; stroke-linecap:round; stroke-width:0.25;"/>
<line x1="187.200000" y1="56.000000" x2="195.200000" y2="56.000000"  style="stroke:black; stroke-linecap:round; stroke-width:0.25;"/>
<line x1="187.200000" y1="68.000000" x2="187.200000" y2="56.000000"  style="stroke:black; stroke-linecap:round; stroke-width:0.25;"/>
<line x1="187.200000" y1="68.000000" x2="187.200000" y2="68.000000"  style="stroke:black; stroke-linecap:round; stroke-width:0.25;"/>
<line x1="187.200000" y1="112.000000" x2="195.200000" y2="112.000000"  style="stroke:black; stroke-linecap:round; stroke-width:0.25;"/>
<line x1="187.200000" y1="120.000000" x2="195.200000" y2="120.000000"  style="stroke:black; stroke-linecap:round; stroke-width:0.25;"/>
<line x1="187.200000" y1="132.000000" x2="187.200000" y2="120.000000"  style="stroke:black; stroke-linecap:round; stroke-width:0.25;"/>
<line x1="187.200000" y1="132.000000" x2="187.200000" y2="132.000000"  style="stroke:black; stroke-linecap:round; stroke-width:0.25;"/>
<line x1="187.200000" y1="176.000000" x2="195.200000" y2="176.000000"  style="stroke:black; stroke-linecap:round; stroke-width:0.25;"/>
<line x1="187.200000" y1="184.000000" x2="195.200000" y2="184.000000"  style="stroke:black; stroke-linecap:round; stroke-width:0.25;"/>
<line x1="187.200000" y1="196.000000" x2="187.200000" y2="184.000000"  style="stroke:black; stroke-linecap:round; stroke-width:0.25;"/>
<line x1="187.200000" y1="196.000000" x2="187.200000" y2="196.000000"  style="stroke:black; stroke-linecap:round; stroke-width:0.25;"/>
<line x1="187.200000" y1="240.000000" x2="195.200000" y2="240.000000"  style="stroke:black; stroke-linecap:round; stroke-width:0.25;"/>
<line x1="187.200000" y1="248.000000" x2="195.200000" y2="248.000000"  style="stroke:black; stroke-linecap:round; stroke-width:0.25;"/>
<line x1="187.200000" y1="260.000000" x2="187.200000" y2="248.000000"  style="stroke:black; stroke-linecap:round; stroke-width:0.25;"/>
<line x1="187.200000" y1="260.000000" x2="187.200000" y2="260.000000"  style="stroke:black; stroke-linecap:round; stroke-width:0.25;"/>
<line x1="195.200000" y1="48.000000" x2="199.200000" y2="48.000000"  style="stroke:black; stroke-linecap:round; stroke-width:0.25;"/>
<line x1="195.200000" y1="56.000000" x2="199.200000" y2="56.000000"  style="stroke:black; stroke-linecap:round; stroke-width:0.25;"/>
<line x1="195.200000" y1="112.000000" x2="199.200000" y2="112.000000"  style="stroke:black; stroke-linecap:round; stroke-width:0.25;"/>
<line x1="195.200000" y1="120.000000" x2="199.200000" y2="120.000000"  style="stroke:black; stroke-linecap:round; stroke-width:0.25;"/>
<line x1="195.200000" y1="176.000000" x2="199.200000" y2="176.000000"  style="stroke:black; stroke-linecap:round; stroke-width:0.25;"/>
<line x1="195.200000" y1="184.000000" x2="199.200000" y2="184.000000"  style="stroke:black; stroke-linecap:round; stroke-width:0.25;"/>
<line x1="195.200000" y1="240.000000" x2="199.200000" y2="240.000000"  style="stroke:black; stroke-linecap:round; stroke-width:0.25;"/>
<line x1="195.200000" y1="248.000000" x2="199.200000" y2="248.000000"  style="stroke:black; stroke-linecap:round; stroke-width:0.25;"/>
<line x1="223.200000" y1="52.000000" x2="227.200000" y2="52.000000"  style="stroke:black; stroke-linecap:round; stroke-width:0.25;"/>
<line x1="223.200000" y1="116.000000" x2="227.200000" y2="116.000000"  style="stroke:black; stroke-linecap:round; stroke-width:0.25;"/>
<line x1="223.200000" y1="180.000000" x2="227.200000" y2="180.000000"  style="stroke:black; stroke-linecap:round; stroke-width:0.25;"/>
<line x1="223.200000" y1="244.000000" x2="227.200000" y2="244.000000"  style="stroke:black; stroke-linecap:round; stroke-width:0.25;"/>
<line x1="227.200000" y1="52.000000" x2="243.200000" y2="52.000000"  style="stroke:black; stroke-linecap:round; stroke-width:0.25;"/>
<line x1="227.200000" y1="116.000000" x2="235.200000" y2="116.000000"  style="stroke:black; stroke-linecap:round; stroke-width:0.25;"/>
<line x1="227.200000" y1="160.000000" x2="243.200000" y2="160.000000"  style="stroke:black; stroke-linecap:round; stroke-width:0.25;"/>
<line x1="227.200000" y1="180.000000" x2="227.200000" y2="160.000000"  style="stroke:black; stroke-linecap:round; stroke-width:0.25;"/>
<line x1="227.200000" y1="180.000000" x2="227.200000" y2="180.000000"  style="stroke:black; stroke-linecap:round; stroke-width:0.25;"/>
<line x1="227.200000" y1="244.000000" x2="235.200000" y2="244.000000"  style="stroke:black; stroke-linecap:round; stroke-width:0.25;"/>
<line x1="235.200000" y1="116.000000" x2="235.200000" y2="136.000000"  style="stroke:black; stroke-linecap:round; stroke-width:0.25;"/>
<line x1="235.200000" y1="136.000000" x2="243.200000" y2="136.000000"  style="stroke:black; stroke-linecap:round; stroke-width:0.25;"/>
<line x1="235.200000" y1="168.000000" x2="243.200000" y2="168.000000"  style="stroke:black; stroke-linecap:round; stroke-width:0.25;"/>
<line x1="235.200000" y1="244.000000" x2="235.200000" y2="168.000000"  style="stroke:black; stroke-linecap:round; stroke-width:0.25;"/>
<line x1="243.200000" y1="52.000000" x2="243.200000" y2="128.000000"  style="stroke:black; stroke-linecap:round; stroke-width:0.25;"/>
<line x1="243.200000" y1="128.000000" x2="243.200000" y2="128.000000"  style="stroke:black; stroke-linecap:round; stroke-width:0.25;"/>
<line x1="243.200000" y1="128.000000" x2="247.200000" y2="128.000000"  style="stroke:black; stroke-linecap:round; stroke-width:0.25;"/>
<line x1="243.200000" y1="136.000000" x2="247.200000" y2="136.000000"  style="stroke:black; stroke-linecap:round; stroke-width:0.25;"/>
<line x1="243.200000" y1="160.000000" x2="247.200000" y2="160.000000"  style="stroke:black; stroke-linecap:round; stroke-width:0.25;"/>
<line x1="243.200000" y1="168.000000" x2="247.200000" y2="168.000000"  style="stroke:black; stroke-linecap:round; stroke-width:0.25;"/>
<line x1="271.200000" y1="132.000000" x2="275.200000" y2="132.000000"  style="stroke:black; stroke-linecap:round; stroke-width:0.25;"/>
<line x1="271.200000" y1="164.000000" x2="275.200000" y2="164.000000"  style="stroke:black; stroke-linecap:round; stroke-width:0.25;"/>
<line x1="275.200000" y1="132.000000" x2="283.200000" y2="132.000000"  style="stroke:black; stroke-linecap:round; stroke-width:0.25;"/>
<line x1="275.200000" y1="152.000000" x2="283.200000" y2="152.000000"  style="stroke:black; stroke-linecap:round; stroke-width:0.25;"/>
<line x1="275.200000" y1="164.000000" x2="275.200000" y2="152.000000"  style="stroke:black; stroke-linecap:round; stroke-width:0.25;"/>
<line x1="275.200000" y1="164.000000" x2="275.200000" y2="164.000000"  style="stroke:black; stroke-linecap:round; stroke-width:0.25;"/>
<line x1="283.200000" y1="132.000000" x2="283.200000" y2="144.000000"  style="stroke:black; stroke-linecap:round; stroke-width:0.25;"/>
<line x1="283.200000" y1="144.000000" x2="283.200000" y2="144.000000"  style="stroke:black; stroke-linecap:round; stroke-width:0.25;"/>
<line x1="283.200000" y1="144.000000" x2="287.200000" y2="144.000000"  style="stroke:black; stroke-linecap:round; stroke-width:0.25;"/>
<line x1="283.200000" y1="152.000000" x2="287.200000" y2="152.000000"  style="stroke:black; stroke-linecap:round; stroke-width:0.25;"/>
<line x1="311.200000" y1="148.000000" x2="315.200000" y2="148.000000"  style="stroke:black; stroke-linecap:round; stroke-width:0.25;"/>
<line x1="315.200000" y1="148.000000" x2="315.200000" y2="148.000000"  style="stroke:black; stroke-linecap:round; stroke-width:0.25;"/>
<line x1="315.200000" y1="148.000000" x2="319.200000" y2="148.000000"  style="stroke:black; stroke-linecap:round; stroke-width:0.25;"/>
<line x1="319.200000" y1="148.000000" x2="323.200000" y2="148.000000"  style="stroke:black; stroke-linecap:round; stroke-width:0.25;"/>
<line x1="323.200000" y1="148.000000" x2="333.200000" y2="148.000000"  style="stroke:black; stroke-linecap:round; stroke-width:0.25;"/>
</svg>
